<svg width="16" height="16" viewBox="0 0 16 16" fill="none" xmlns="http://www.w3.org/2000/svg">
<path d="M8.09346 5.02252C7.51157 5.02252 6.61083 4.39377 5.66228 4.41649C4.41083 4.43164 3.263 5.10585 2.61734 6.17397C1.31806 8.31782 2.28256 11.4843 3.54995 13.2267C4.1717 14.0751 4.90503 15.0296 5.8775 14.9993C6.81011 14.9614 7.16085 14.4236 8.29274 14.4236C9.41665 14.4236 9.73549 14.9993 10.7239 14.9766C11.7283 14.9614 12.3659 14.113 12.9797 13.257C13.6891 12.2722 13.9841 11.3177 14 11.2646C13.9761 11.2571 12.0471 10.5526 12.0232 8.43145C12.0072 6.6588 13.5457 5.81036 13.6174 5.77249C12.7406 4.55285 11.3935 4.41649 10.9232 4.38619C9.69564 4.29529 8.66737 5.02252 8.09346 5.02252ZM10.1659 3.23474C10.684 2.64386 11.0268 1.81814 10.9312 1C10.1898 1.0303 9.29709 1.46968 8.76303 2.06055C8.28477 2.58325 7.87027 3.42412 7.98186 4.22711C8.80288 4.28771 9.64781 3.82562 10.1659 3.23474Z" fill="#151515"/>
</svg>
