<svg width="16" height="16" viewBox="0 0 16 16" fill="none" xmlns="http://www.w3.org/2000/svg">
<path d="M1.74455 4.8564C2.89636 2.56864 5.26359 1 8 1C9.88678 1 11.4713 1.69366 12.6836 2.82318L10.6759 4.83092C9.95048 4.1373 9.02767 3.78409 8 3.78409C6.17679 3.78409 4.63359 5.01546 4.08318 6.67C3.94315 7.09 3.8636 7.53863 3.8636 8C3.8636 8.46137 3.94315 8.91 4.08318 9.33C4.63359 10.9845 6.17679 12.2159 8 12.2159C8.94178 12.2159 9.74363 11.9677 10.3705 11.5477C11.1118 11.0514 11.605 10.31 11.7673 9.435H8V6.72726H14.5927C14.6755 7.18541 14.72 7.66274 14.72 8.15911C14.72 10.2909 13.9564 12.0854 12.6327 13.3041C11.4745 14.3732 9.89 15 8 15C5.26359 15 2.89636 13.4314 1.74455 11.1436C1.27047 10.1986 1 9.12952 1 8C1 6.87048 1.27047 5.80138 1.74455 4.8564Z" fill="#151515"/>
</svg>
