<svg width="30" height="30" viewBox="0 0 30 30" fill="none" xmlns="http://www.w3.org/2000/svg">
<rect width="29.9851" height="29.9851" rx="14.9925" fill="#D70000"/>
<path d="M22.4479 11.9042C22.4128 11.1076 22.284 10.5599 22.0994 10.0854C21.9091 9.58163 21.6162 9.13064 21.2325 8.75573C20.8576 8.37498 20.4036 8.07913 19.9057 7.89173C19.4284 7.70719 18.8836 7.57837 18.087 7.54324C17.2844 7.50515 17.0296 7.49634 14.9941 7.49634C12.9586 7.49634 12.7038 7.50515 11.9042 7.54027C11.1076 7.57539 10.5599 7.70433 10.0855 7.88875C9.58163 8.07913 9.13064 8.37201 8.75573 8.75573C8.37498 9.13064 8.07924 9.5846 7.89173 10.0825C7.70719 10.5599 7.57837 11.1046 7.54324 11.9012C7.50515 12.7038 7.49634 12.9586 7.49634 14.9941C7.49634 17.0296 7.50515 17.2844 7.54027 18.084C7.57539 18.8806 7.70433 19.4283 7.88887 19.9028C8.07924 20.4066 8.37498 20.8576 8.75573 21.2325C9.13064 21.6132 9.5846 21.9091 10.0825 22.0965C10.5599 22.281 11.1046 22.4098 11.9013 22.445C12.7008 22.4802 12.9557 22.4889 14.9912 22.4889C17.0268 22.4889 17.2815 22.4802 18.0811 22.445C18.8778 22.4098 19.4254 22.281 19.8999 22.0965C20.9074 21.7069 21.7041 20.9103 22.0936 19.9028C22.278 19.4254 22.407 18.8806 22.4421 18.084C22.4772 17.2844 22.486 17.0296 22.486 14.9941C22.486 12.9586 22.4831 12.7038 22.4479 11.9042ZM21.0978 18.0254C21.0656 18.7576 20.9426 19.153 20.8401 19.4166C20.5881 20.0698 20.0698 20.5881 19.4166 20.8401C19.153 20.9426 18.7548 21.0656 18.0254 21.0977C17.2346 21.1329 16.9975 21.1416 14.9971 21.1416C12.9967 21.1416 12.7565 21.1329 11.9686 21.0977C11.2364 21.0656 10.841 20.9426 10.5774 20.8401C10.2524 20.7199 9.95654 20.5296 9.7164 20.2806C9.46745 20.0375 9.27708 19.7446 9.15695 19.4196C9.05444 19.156 8.93146 18.7576 8.89931 18.0284C8.86407 17.2376 8.85538 17.0003 8.85538 14.9999C8.85538 12.9995 8.86407 12.7594 8.89931 11.9716C8.93146 11.2394 9.05444 10.844 9.15695 10.5804C9.27708 10.2553 9.46745 9.95952 9.71938 9.71926C9.96238 9.47031 10.2553 9.27994 10.5804 9.15993C10.844 9.05742 11.2424 8.93443 11.9716 8.90217C12.7624 8.86705 12.9996 8.85824 14.9999 8.85824C17.0033 8.85824 17.2405 8.86705 18.0284 8.90217C18.7606 8.93443 19.156 9.05742 19.4196 9.15993C19.7446 9.27994 20.0405 9.47031 20.2806 9.71926C20.5296 9.96238 20.7199 10.2553 20.8401 10.5804C20.9426 10.844 21.0656 11.2422 21.0978 11.9716C21.1329 12.7624 21.1417 12.9995 21.1417 14.9999C21.1417 17.0003 21.1329 17.2346 21.0978 18.0254Z" fill="white"/>
<path d="M14.994 11.1428C12.8678 11.1428 11.1426 12.8678 11.1426 14.9942C11.1426 17.1206 12.8678 18.8456 14.994 18.8456C17.1204 18.8456 18.8454 17.1206 18.8454 14.9942C18.8454 12.8678 17.1204 11.1428 14.994 11.1428ZM14.994 17.4925C13.6146 17.4925 12.4957 16.3737 12.4957 14.9942C12.4957 13.6147 13.6146 12.4959 14.994 12.4959C16.3735 12.4959 17.4923 13.6147 17.4923 14.9942C17.4923 16.3737 16.3735 17.4925 14.994 17.4925Z" fill="white"/>
<path d="M19.8969 10.9904C19.8969 11.487 19.4943 11.8896 18.9976 11.8896C18.5011 11.8896 18.0985 11.487 18.0985 10.9904C18.0985 10.4938 18.5011 10.0913 18.9976 10.0913C19.4943 10.0913 19.8969 10.4938 19.8969 10.9904Z" fill="white"/>
</svg>
