<svg width="31" height="30" viewBox="0 0 31 30" fill="none" xmlns="http://www.w3.org/2000/svg">
<rect x="0.506714" width="29.9851" height="29.9851" rx="14.9925" fill="#D70000"/>
<path d="M15.5261 7.04199C11.2627 7.04264 8.99655 9.7741 8.99655 12.7525C8.99655 14.1334 9.76836 15.8565 11.0042 16.4028C11.3567 16.5616 11.31 16.3678 11.6133 15.2078C11.6373 15.1113 11.625 15.0277 11.5472 14.9376C9.78067 12.8944 11.2025 8.69383 15.274 8.69383C21.1666 8.69383 20.0656 16.8474 16.2992 16.8474C15.3285 16.8474 14.6053 16.0853 14.834 15.1424C15.1114 14.0194 15.6544 12.8121 15.6544 12.0027C15.6544 9.96267 12.6152 10.2653 12.6152 12.9682C12.6152 13.8036 12.9107 14.3673 12.9107 14.3673C12.9107 14.3673 11.9328 18.3177 11.7513 19.0559C11.4442 20.3053 11.7928 22.3278 11.8233 22.5021C11.8421 22.598 11.9496 22.6285 12.0099 22.5494C12.1065 22.423 13.2885 20.7369 13.6196 19.5179C13.7401 19.074 14.2346 17.2725 14.2346 17.2725C14.5606 17.8609 15.5002 18.3534 16.5014 18.3534C19.4798 18.3534 21.6325 15.7353 21.6325 12.4868C21.6222 9.37232 18.9568 7.04199 15.5261 7.04199Z" fill="white"/>
</svg>
