<svg width="165" height="66" viewBox="0 0 165 66" fill="none" xmlns="http://www.w3.org/2000/svg">
<path d="M38.608 24.8166C39.0543 24.6841 39.5091 24.5827 39.9693 24.5132C40.517 24.4326 41.0701 24.3945 41.6236 24.3995C42.6702 24.3821 43.7083 24.5906 44.6675 25.011C45.5319 25.3926 46.303 25.9589 46.9268 26.6702C47.5518 27.4107 48.0248 28.2678 48.3187 29.1922C48.6406 30.1871 48.8002 31.2276 48.7914 32.2735C48.8194 33.5684 48.5963 34.8564 48.1344 36.0659C47.736 37.0822 47.1045 37.9901 46.291 38.7159C45.4757 39.4265 44.5209 39.9578 43.4882 40.2755C42.3398 40.6281 41.1442 40.8016 39.9433 40.7899C38.6624 40.8028 37.3836 40.6789 36.129 40.4201C35.065 40.1926 34.0192 39.8868 33 39.5052V19H38.608V24.8166ZM38.608 36.4523C39.0878 36.5876 39.5844 36.6531 40.0827 36.6467C40.974 36.6759 41.8319 36.3048 42.4224 35.6346C43.0211 34.9582 43.3196 33.924 43.3181 32.5319C43.3181 31.1808 43.0242 30.1845 42.4366 29.543C41.8716 28.9093 41.0576 28.5566 40.2103 28.5783C39.9302 28.576 39.6507 28.603 39.3761 28.6589C39.1162 28.7129 38.8597 28.7825 38.608 28.8674V36.4523Z" fill="black"/>
<path d="M54.9194 33.6554C54.9619 34.6035 55.2668 35.3375 55.8339 35.8574C56.4244 36.3935 57.2005 36.6767 57.9963 36.6467C58.6217 36.6632 59.2421 36.5308 59.8066 36.2603C60.3495 35.9683 60.8247 35.5644 61.2009 35.0752L64.63 37.7749C64.2808 38.2123 63.8845 38.6098 63.4484 38.9601C62.441 39.7661 61.2525 40.3129 59.9862 40.5529C59.1675 40.7082 58.3356 40.7828 57.5024 40.7757C56.4394 40.784 55.3827 40.6101 54.3782 40.2613C52.4273 39.6005 50.8637 38.1145 50.1006 36.1963C49.652 35.0661 49.4342 33.8571 49.4602 32.6409C49.4392 31.4503 49.6462 30.2666 50.0699 29.1542C50.438 28.1865 51.0011 27.3054 51.7242 26.5659C52.4433 25.8448 53.3125 25.292 54.2695 24.947C55.2804 24.5751 56.35 24.3896 57.4268 24.3995C59.7554 24.3995 61.6081 25.1548 62.9852 26.6655C64.3623 28.1761 65.0617 30.506 65.0838 33.6554H54.9194ZM59.8231 30.6665C59.8018 29.9417 59.536 29.2457 59.0693 28.692C58.6732 28.2275 58.0929 27.962 57.4835 27.9667C56.8422 27.9688 56.2315 28.2415 55.8009 28.7181C55.3019 29.2546 55.0016 29.9465 54.9501 30.6783L59.8231 30.6665Z" fill="black"/>
<path d="M64.9491 28.6754V24.755H67.1611V20.799H72.7691V24.755H75.1466L76.5315 28.6754H72.7691V34.9732C72.7525 35.3983 72.8118 35.8229 72.944 36.2271C73.0622 36.5281 73.3245 36.6775 73.731 36.6775C74.1119 36.6769 74.4877 36.5893 74.8299 36.4215C75.1637 36.2613 75.4805 36.0675 75.7752 35.8431L77.2168 39.2492C76.5157 39.7403 75.7433 40.1201 74.9268 40.3751C73.9951 40.6464 73.0279 40.7759 72.0578 40.7591C71.2674 40.7802 70.4798 40.6548 69.7347 40.3893C69.1494 40.1729 68.6265 39.8146 68.2128 39.3464C67.8158 38.8715 67.5357 38.3096 67.3951 37.7062C67.23 37.0009 67.1507 36.2783 67.1587 35.554V28.6802L64.9491 28.6754Z" fill="black"/>
<path d="M81.5629 40.4391L74.6338 20.7919H80.0551L84.0727 33.0794L86.4762 24.755H90.1203L92.5238 33.0794L94.8303 24.755H100.566L95.0217 40.4391H90.7277L88.2604 32.2095L85.8263 40.4391H81.5629Z" fill="black"/>
<path d="M109.362 40.4391L108.913 39.2161C108.408 39.6714 107.821 40.0261 107.183 40.2613C106.374 40.5651 105.515 40.7123 104.652 40.6951C103.965 40.7015 103.283 40.5934 102.631 40.3751C102.034 40.1734 101.483 39.8507 101.015 39.427C100.556 39.0108 100.189 38.5019 99.9397 37.9337C99.6741 37.3036 99.5436 36.6244 99.5568 35.9403C99.5107 34.5814 100.111 33.2814 101.173 32.4371C101.701 32.0161 102.291 31.6803 102.922 31.4416C103.603 31.1782 104.312 30.9945 105.035 30.894C105.72 30.7874 106.354 30.7068 106.942 30.657C107.531 30.6072 108.069 30.5646 108.561 30.5432V30.1545C108.561 29.5098 108.358 29.0405 107.951 28.7323C107.533 28.4282 107.026 28.27 106.51 28.282C105.909 28.2786 105.315 28.3988 104.763 28.6352C104.199 28.8892 103.67 29.2159 103.189 29.607L100.677 26.8219C101.528 26.0751 102.497 25.4773 103.546 25.0537C104.76 24.5987 106.049 24.3807 107.344 24.4113C109.392 24.4113 111.026 24.9099 112.245 25.907C113.465 26.9041 114.074 28.4519 114.072 30.5503V40.4391H109.362ZM108.561 33.3283C108.239 33.3496 107.92 33.3757 107.599 33.4089C107.278 33.4421 106.947 33.4895 106.606 33.5535C105.945 33.6601 105.472 33.8901 105.189 34.2432C104.916 34.5774 104.769 34.9967 104.773 35.4284C104.761 35.8497 104.934 36.255 105.245 36.5376C105.605 36.8453 106.071 37.0008 106.543 36.9714C106.919 36.9763 107.293 36.9112 107.646 36.7794C107.974 36.6524 108.282 36.4792 108.561 36.2651V33.3283Z" fill="black"/>
<path d="M115.507 42.1741C115.843 42.3602 116.198 42.5111 116.565 42.6245C116.927 42.7452 117.305 42.8099 117.686 42.8165C118.027 42.8284 118.365 42.7465 118.664 42.5795C118.949 42.3817 119.166 42.1013 119.288 41.7759L120.186 39.7517L113.552 24.755H119.64L122.804 33.9137L125.945 24.755H131.712L123.894 43.3308C123.339 44.6361 122.586 45.5573 121.635 46.0946C120.607 46.649 119.453 46.9259 118.286 46.8981C117.531 46.9048 116.777 46.8188 116.043 46.6421C115.373 46.4742 114.719 46.2482 114.089 45.9666L115.507 42.1741Z" fill="black"/>
</svg>
