<svg width="21" height="20" viewBox="0 0 21 20" fill="none" xmlns="http://www.w3.org/2000/svg">
<path d="M6.57597 17.3535L2.16667 18.3333L3.14651 13.924C2.5212 12.7547 2.16667 11.4187 2.16667 9.99999C2.16667 5.39761 5.89762 1.66666 10.5 1.66666C15.1023 1.66666 18.8333 5.39761 18.8333 9.99999C18.8333 14.6023 15.1023 18.3333 10.5 18.3333C9.08125 18.3333 7.74533 17.9788 6.57597 17.3535ZM6.33333 9.99999C6.33333 12.3012 8.19882 14.1667 10.5 14.1667C12.8012 14.1667 14.6667 12.3012 14.6667 9.99999H13C13 11.3807 11.8807 12.5 10.5 12.5C9.11925 12.5 8 11.3807 8 9.99999H6.33333Z" fill="white"/>
</svg>
