<svg width="323" height="157" viewBox="0 0 323 157" fill="none" xmlns="http://www.w3.org/2000/svg">
<rect x="0.461731" width="321.926" height="157" rx="10" fill="#151515"/>
<path d="M127.791 70.4228C127.772 65.3406 131.077 62.5221 137.145 62.501C141.512 62.4856 142.293 65.2965 142.293 66.3179C142.293 68.2743 139.479 70.3498 139.479 70.3498C139.479 70.3498 139.635 71.569 142.051 71.5594C144.466 71.5498 146.819 69.9812 146.806 66.0548C146.794 61.5449 141.992 59.4828 137.245 59.5001C133.274 59.5135 122.744 60.0627 122.781 70.3498C122.816 79.4869 140.341 80.2933 140.355 86.1434C140.379 92.4965 133.136 94.2072 130.685 94.2072C128.234 94.2072 127.237 92.5004 127.233 91.5634C127.216 86.4179 132.42 84.9856 132.42 84.9856C132.42 84.6016 132.115 82.891 130.1 82.8986C124.907 82.9082 122.839 87.3011 122.855 91.5903C122.868 95.2382 125.489 97.5153 129.446 97.4999C137.013 97.473 145.545 93.8405 145.514 85.7728C145.487 78.2274 127.813 76.2575 127.791 70.4228Z" fill="white"/>
<path d="M199.925 90.6384C199.865 90.4944 199.695 90.529 199.471 90.7114C198.612 91.4083 196.649 93.382 192.056 93.3993C183.682 93.43 182.228 79.8482 182.228 79.8482C182.228 79.8482 188.61 75.1597 189.607 73.2685C190.604 71.3774 187.432 70.9646 187.432 70.9646C187.432 70.9646 182.967 76.3098 179.803 77.8765C180.146 75.5514 182.487 70.2523 182.622 67.2053C182.757 64.1583 178.893 64.9014 178.277 65.1932C178.277 66.5237 174.864 78.6022 173.621 85.2414C172.889 86.3934 171.844 87.7105 170.907 87.7124C170.365 87.7124 170.166 86.7236 170.16 85.3067C170.16 83.3407 171.26 80.19 171.252 78.2758C171.252 76.951 170.634 76.8723 170.101 76.8742C169.986 76.8742 169.346 76.8915 169.229 76.8915C167.863 76.8915 168.312 75.7395 167.083 75.7511C163.321 75.7645 158.529 79.806 158.32 85.9057C157.05 86.7332 155.272 87.7758 154.365 87.7796C153.413 87.7796 153.176 86.9137 153.175 86.1649C153.175 84.8497 155.336 77.0355 155.336 77.0355C155.336 77.0355 158.09 76.3405 159.292 76.112C160.201 75.9373 160.462 75.872 160.815 75.44C161.169 75.008 161.859 74.1153 162.417 73.3127C162.975 72.5102 162.427 71.89 161.395 71.8939C160.041 71.8939 156.417 72.7386 156.417 72.7386C156.417 72.7386 158.158 65.3545 158.156 65.2047C158.154 65.055 157.961 64.9762 157.666 64.9782C157.007 64.9782 155.83 65.3276 155.077 65.5926C153.924 65.9977 152.985 67.3877 152.796 68.0347C152.607 68.6818 151.303 73.7485 151.303 73.7485C151.303 73.7485 144.324 76.1197 143.37 76.4749C143.341 76.4845 143.317 76.5026 143.299 76.5267C143.282 76.5508 143.272 76.5797 143.272 76.6093C143.272 76.6707 144.07 79.6812 145.707 79.6697C146.878 79.6697 150.318 78.2835 150.318 78.2835C150.318 78.2835 148.55 85.1953 148.562 87.4993C148.562 88.9777 149.27 90.7095 152.205 90.6999C154.936 90.6999 157.327 89.3117 158.665 88.346C159.397 90.168 161.126 90.6672 162.306 90.6634C164.952 90.6634 166.989 88.586 167.25 88.3076C167.594 89.1063 168.404 90.6403 170.253 90.6346C171.299 90.6346 172.382 89.4826 173.18 88.3652C173.165 88.5974 173.168 88.8304 173.19 89.0621C173.51 91.9267 177.832 90.2429 178.068 89.8436C178.214 87.7719 178.123 83.5365 178.964 80.9215C180.08 89.8416 184.314 95.8415 191.925 95.8146C196.181 95.7993 198.364 94.5955 199.268 93.6028C199.63 93.208 199.882 92.7267 199.997 92.2067C200.113 91.6867 200.088 91.1461 199.925 90.6384ZM163.405 87.697C159.75 87.7105 164.523 78.3891 167.641 78.3776C167.645 79.5795 167.576 87.6836 163.405 87.697Z" fill="white"/>
<path d="M193.075 90.5532C196.374 90.5417 198.928 88.4048 199.396 87.7097C200.001 86.8054 198.694 85.4403 198.278 85.4634C197.236 86.4445 196.148 87.631 193.703 87.6387C190.825 87.6502 191.476 84.5341 191.476 84.5341C191.476 84.5341 197.016 85.2388 199.242 81.3201C199.954 80.0664 199.984 78.3327 199.697 77.5858C199.41 76.8389 197.798 75.4566 195.234 75.6658C192.085 75.927 188.117 79.1583 187.244 83.0385C186.544 86.1603 187.869 90.5724 193.075 90.5532ZM196.587 77.4783C197.106 77.461 197.059 78.302 196.92 79.1813C196.725 80.3736 195.061 83.4052 191.884 83.2862C192.105 81.5217 194.468 77.5474 196.593 77.4783H196.587Z" fill="white"/>
</svg>
