<svg width="21" height="20" viewBox="0 0 21 20" fill="none" xmlns="http://www.w3.org/2000/svg">
<path d="M3.65256 2.35499L10.5 0.833344L17.3474 2.35499C17.7287 2.43973 18 2.7779 18 3.16849V11.4908C18 13.1625 17.1645 14.7237 15.7735 15.651L10.5 19.1667L5.2265 15.651C3.83551 14.7237 3 13.1625 3 11.4908V3.16849C3 2.7779 3.27128 2.43973 3.65256 2.35499ZM10.5 11.25L12.9491 12.5376L12.4813 9.81043L14.4628 7.87911L11.7246 7.48123L10.5 5.00001L9.27542 7.48123L6.53727 7.87911L8.51863 9.81043L8.05089 12.5376L10.5 11.25Z" fill="white"/>
</svg>
