<svg width="14" height="15" viewBox="0 0 14 15" fill="none" xmlns="http://www.w3.org/2000/svg">
<path d="M5.83741 1.72716C5.01983 1.46249 4.13104 1.83063 3.74007 2.59591L3.27003 3.51593C3.21418 3.62524 3.12527 3.71415 3.01596 3.77L2.09594 4.24003C1.33067 4.63101 0.962524 5.5198 1.22719 6.33737L1.54537 7.32029C1.58318 7.43707 1.58318 7.56284 1.54537 7.67962L1.22719 8.66254C0.962524 9.48014 1.33067 10.3689 2.09594 10.7599L3.01596 11.2299C3.12527 11.2858 3.21418 11.3747 3.27003 11.484L3.74007 12.404C4.13104 13.1693 5.01983 13.5375 5.83741 13.2728L6.82032 12.9546C6.93711 12.9168 7.06287 12.9168 7.17966 12.9546L8.16257 13.2728C8.98017 13.5375 9.86894 13.1693 10.2599 12.404L10.7299 11.484C10.7858 11.3747 10.8747 11.2858 10.984 11.2299L11.9041 10.7599C12.6693 10.3689 13.0375 9.48014 12.7728 8.66254L12.4546 7.67962C12.4168 7.56284 12.4168 7.43707 12.4546 7.32029L12.7728 6.33737C13.0375 5.5198 12.6693 4.63101 11.9041 4.24003L10.984 3.77C10.8747 3.71415 10.7858 3.62524 10.7299 3.51593L10.2599 2.59591C9.86894 1.83063 8.98017 1.46249 8.16257 1.72716L7.17966 2.04534C7.06287 2.08314 6.93711 2.08315 6.82032 2.04534L5.83741 1.72716ZM3.94319 7.35838L4.76815 6.53337L6.41806 8.18333L9.71791 4.8835L10.5429 5.70846L6.41806 9.83323L3.94319 7.35838Z" fill="#00A442"/>
</svg>
