<svg width="24" height="25" viewBox="0 0 24 25" fill="none" xmlns="http://www.w3.org/2000/svg">
<path d="M22 17.5022C21.999 20.3731 19.9816 22.7726 17.2872 23.3616L16.6492 21.4476C17.8532 21.2511 18.8765 20.5171 19.4649 19.5H17C15.8954 19.5 15 18.6046 15 17.5V13.5C15 12.3954 15.8954 11.5 17 11.5H19.9381C19.446 7.55369 16.0796 4.5 12 4.5C7.92038 4.5 4.55399 7.55369 4.06189 11.5H7C8.10457 11.5 9 12.3954 9 13.5V17.5C9 18.6046 8.10457 19.5 7 19.5H4C2.89543 19.5 2 18.6046 2 17.5V12.5C2 6.97715 6.47715 2.5 12 2.5C17.5228 2.5 22 6.97715 22 12.5V13.4987V13.5V17.5V17.5022Z" fill="#D70000"/>
</svg>
