<svg width="15" height="15" viewBox="0 0 15 15" fill="none" xmlns="http://www.w3.org/2000/svg">
<g clip-path="url(#clip0_61_89)">
<path d="M7.93827 7.31862L13.6266 3.73107C13.4116 3.39637 13.1195 3.11806 12.7749 2.91943L8.58167 0.499171C7.81028 0.0536618 6.85977 0.0536618 6.08836 0.499171L1.89514 2.91943C1.59246 3.09431 1.33 3.33098 1.12482 3.61402L7.00897 7.31865C7.29313 7.49675 7.65411 7.49675 7.93827 7.31862ZM6.35782 3.44545C6.35764 2.90577 6.79502 2.46812 7.33473 2.46794C7.87441 2.46777 8.31206 2.90515 8.31223 3.44486C8.31241 3.98456 7.87503 4.42219 7.33532 4.42236C7.33522 4.42236 7.33512 4.42236 7.33502 4.42236C6.79544 4.42234 6.35796 3.98501 6.35782 3.44545Z" fill="#D70000"/>
<path d="M7.27962 7.8071C7.11316 7.78149 6.95372 7.7221 6.81108 7.63256L0.929624 3.92944C0.744796 4.2846 0.648268 4.67904 0.648193 5.07938V9.92138C0.648416 10.8122 1.12372 11.6352 1.89513 12.0806L6.08835 14.5014C6.45114 14.7111 6.86098 14.8258 7.27991 14.8349C7.27991 14.8349 7.27991 14.8334 7.27991 14.8325L7.27962 7.8071ZM2.16489 11.2309C1.77389 10.9429 1.46703 10.2998 1.46703 9.78993C1.46703 9.28007 1.7754 9.07139 2.1664 9.33366C2.56937 9.60312 2.90529 10.2635 2.90529 10.8007C2.90529 11.3378 2.56786 11.5288 2.16489 11.2309ZM5.16236 9.80971C4.77136 9.52049 4.46298 8.87861 4.46298 8.36874C4.46298 7.85888 4.77136 7.65021 5.16236 7.91248C5.56533 8.18193 5.90095 8.84236 5.90095 9.38098C5.90095 9.91957 5.56533 10.1076 5.16236 9.80971Z" fill="#D70000"/>
<path d="M13.8018 4.05713L8.13614 7.63271C7.9887 7.72544 7.82331 7.78595 7.65085 7.81024V14.8159C7.97891 14.7741 8.29532 14.6673 8.58165 14.5019L12.7749 12.0807C13.5464 11.6353 14.0217 10.8121 14.0218 9.92123V5.07953C14.0217 4.72698 13.9467 4.37849 13.8018 4.05713ZM9.26125 13.3899C8.87025 13.651 8.56187 13.4435 8.56187 12.9336C8.56187 12.4238 8.87025 11.7819 9.26125 11.4927C9.66422 11.1933 9.99984 11.3828 9.99984 11.9214C9.99984 12.46 9.66424 13.1208 9.26125 13.3899ZM9.26125 9.83799C8.87025 10.099 8.56187 9.89158 8.56187 9.38172C8.56187 8.87186 8.87025 8.22997 9.26125 7.94076C9.66422 7.64257 9.99954 7.83089 9.99954 8.36827C9.99954 8.90565 9.66424 9.56886 9.26125 9.83799ZM12.5398 11.2685C12.1489 11.5295 11.8405 11.3224 11.8405 10.8122C11.8405 10.302 12.1489 9.66045 12.5398 9.37124C12.9428 9.07335 13.2784 9.26137 13.2784 9.79996C13.2784 10.3386 12.9428 10.9993 12.5398 11.2685ZM12.5398 7.71654C12.1489 7.97911 11.8405 7.76954 11.8405 7.26057C11.8405 6.7516 12.1489 6.10882 12.5398 5.81961C12.9428 5.52023 13.2784 5.71004 13.2784 6.24833C13.2784 6.78663 12.9428 7.44738 12.5398 7.71654Z" fill="#D70000"/>
</g>
<defs>
<clipPath id="clip0_61_89">
<rect width="14.67" height="14.67" fill="white" transform="translate(0 0.165039)"/>
</clipPath>
</defs>
</svg>
