<svg width="165" height="66" viewBox="0 0 165 66" fill="none" xmlns="http://www.w3.org/2000/svg">
<g clip-path="url(#clip0_1_254)">
<path fill-rule="evenodd" clip-rule="evenodd" d="M116.536 31.6949C116.527 31.6542 116.516 31.6157 116.503 31.5795C116.49 31.5433 116.474 31.5049 116.456 31.4642C116.439 31.428 116.421 31.3918 116.404 31.3556C116.381 31.3239 116.359 31.29 116.337 31.2538C116.32 31.2221 116.298 31.1882 116.271 31.152C116.249 31.1203 116.227 31.0887 116.205 31.057C116.179 31.0253 116.154 30.9936 116.132 30.962C116.106 30.9303 116.079 30.8986 116.053 30.867C115.982 30.7855 115.907 30.7086 115.828 30.6362C115.753 30.5593 115.671 30.4869 115.583 30.4191C115.499 30.3512 115.414 30.2879 115.325 30.2291C115.233 30.1703 115.138 30.116 115.041 30.0662C114.944 30.0119 114.847 29.9644 114.75 29.9237C114.648 29.8785 114.547 29.8355 114.446 29.7948C114.344 29.754 114.24 29.7178 114.135 29.6862C114.033 29.6545 113.93 29.6251 113.824 29.598C113.718 29.5708 113.61 29.5459 113.5 29.5233C113.389 29.5007 113.281 29.4803 113.176 29.4622C113.065 29.4441 112.955 29.4283 112.845 29.4147C112.735 29.4012 112.624 29.3898 112.514 29.3808C112.064 29.3446 111.632 29.3265 111.218 29.3265L108.525 29.3129V33.2557C109.077 33.2557 109.555 33.2399 109.961 33.2082C110.053 33.2037 110.146 33.1946 110.239 33.1811C110.331 33.1675 110.424 33.1494 110.516 33.1268C110.609 33.1041 110.699 33.077 110.788 33.0453C110.876 33.0137 110.962 32.9797 111.046 32.9435C111.129 32.9028 111.209 32.8576 111.284 32.8078C111.363 32.7581 111.438 32.7038 111.509 32.6449C111.579 32.5907 111.647 32.5296 111.714 32.4617C111.78 32.3984 111.842 32.3305 111.899 32.2581C111.974 32.1586 112.044 32.0591 112.111 31.9595C112.181 31.8555 112.247 31.7492 112.309 31.6406C112.371 31.5365 112.428 31.428 112.481 31.3149C112.534 31.2063 112.585 31.0932 112.633 30.9756V37.5378C112.611 37.4156 112.58 37.2957 112.54 37.1781C112.505 37.056 112.463 36.9383 112.415 36.8252C112.366 36.7076 112.311 36.5968 112.249 36.4927C112.188 36.3841 112.122 36.2778 112.051 36.1738C111.989 36.0968 111.923 36.0245 111.853 35.9566C111.786 35.8842 111.714 35.8186 111.634 35.7598C111.559 35.701 111.48 35.6467 111.396 35.5969C111.312 35.5426 111.226 35.4974 111.138 35.4612C111.041 35.4205 110.944 35.3843 110.847 35.3526C110.75 35.321 110.651 35.2916 110.549 35.2644C110.452 35.2418 110.353 35.2237 110.252 35.2101C110.15 35.1966 110.047 35.1875 109.941 35.183C109.5 35.1513 109.028 35.1355 108.525 35.1355V38.3589C108.53 38.4494 108.532 38.5376 108.532 38.6236C108.536 38.7095 108.543 38.7955 108.552 38.8814C108.561 38.9719 108.572 39.0601 108.585 39.1461C108.598 39.2321 108.614 39.318 108.631 39.404C108.644 39.4854 108.662 39.5668 108.684 39.6483C108.706 39.7297 108.73 39.8111 108.757 39.8926C108.783 39.974 108.814 40.0532 108.849 40.1301C108.885 40.207 108.922 40.2839 108.962 40.3608C108.997 40.4332 109.039 40.5056 109.088 40.578C109.132 40.6458 109.178 40.7114 109.226 40.7748C109.279 40.8426 109.335 40.906 109.392 40.9648C109.449 41.0281 109.509 41.0869 109.57 41.1412C109.637 41.2001 109.705 41.2543 109.776 41.3041C109.85 41.3539 109.928 41.3991 110.007 41.4398C110.082 41.4805 110.161 41.5167 110.245 41.5484C110.329 41.5801 110.413 41.605 110.497 41.6231H101.705H91.6047C91.6797 41.5869 91.8428 41.5122 92.0942 41.3991C92.1603 41.3674 92.2287 41.3312 92.2992 41.2905C92.3654 41.2543 92.4293 41.2159 92.4911 41.1752C92.5572 41.1299 92.619 41.0847 92.6763 41.0394C92.738 40.9897 92.7976 40.9399 92.8549 40.8901C92.921 40.8313 92.9828 40.768 93.0401 40.7001C93.1018 40.6368 93.1592 40.5689 93.2121 40.4966C93.265 40.4287 93.3157 40.3563 93.3642 40.2794C93.4083 40.2025 93.4502 40.1256 93.4899 40.0487C93.534 39.9537 93.5671 39.8541 93.5891 39.7501C93.6156 39.6505 93.6332 39.5487 93.642 39.4447C93.6509 39.3406 93.6487 39.2366 93.6354 39.1325C93.6266 39.0285 93.6068 38.9267 93.5759 38.8272C93.5538 38.7457 93.5164 38.6213 93.4634 38.4539C93.4105 38.2865 93.351 38.1123 93.2848 37.9314C93.2187 37.7504 93.1548 37.574 93.093 37.4021C93.0357 37.2301 92.9894 37.0967 92.9541 37.0017H88.7074C88.6677 37.1035 88.6082 37.2595 88.5288 37.4631C88.445 37.6667 88.3634 37.8793 88.2841 38.101C88.2091 38.3227 88.1429 38.5421 88.0856 38.7593C88.0768 38.8 88.068 38.8407 88.0592 38.8814C88.0503 38.9222 88.0415 38.9629 88.0327 39.0036C88.0283 39.0443 88.0239 39.0873 88.0195 39.1325C88.0151 39.1732 88.0107 39.2162 88.0062 39.2615C88.0107 39.3972 88.0239 39.5307 88.0459 39.6619C88.068 39.7976 88.1011 39.931 88.1452 40.0622C88.1893 40.1889 88.2422 40.3133 88.3039 40.4355C88.3656 40.5576 88.4362 40.673 88.5156 40.7816C88.5994 40.8901 88.692 40.9897 88.7934 41.0802C88.8948 41.1706 89.0029 41.2521 89.1175 41.3245C89.2322 41.3968 89.3535 41.4579 89.4813 41.5077C89.6092 41.5575 89.7393 41.5959 89.8716 41.6231H83.0782C83.087 41.6231 83.0959 41.6231 83.1047 41.6231H78.1899C75.9541 41.6231 75.1736 40.3948 72.9311 35.149C72.6842 35.1536 72.4284 35.1558 72.1638 35.1558H71.5883C71.5883 35.7983 71.5817 36.4543 71.5685 37.1238C71.5685 37.2867 71.5685 37.4518 71.5685 37.6192C71.5685 37.7821 71.5729 37.9472 71.5817 38.1146C71.5861 38.2775 71.5928 38.4403 71.6016 38.6032C71.6148 38.7661 71.628 38.9312 71.6413 39.0986C71.6501 39.1981 71.6611 39.2977 71.6743 39.3972C71.692 39.4967 71.7118 39.594 71.7339 39.689C71.7559 39.7885 71.7824 39.8858 71.8132 39.9808C71.8441 40.0758 71.8794 40.1686 71.9191 40.259C71.9499 40.3269 71.9808 40.3925 72.0117 40.4558C72.047 40.5192 72.0845 40.5802 72.1241 40.6391C72.1638 40.7024 72.2057 40.7612 72.2498 40.8155C72.2983 40.8698 72.3468 40.9241 72.3953 40.9784C72.435 41.0191 72.4769 41.0598 72.521 41.1005C72.5651 41.1367 72.6114 41.1729 72.6599 41.2091C72.7084 41.2453 72.757 41.277 72.8055 41.3041C72.854 41.3358 72.9047 41.3652 72.9576 41.3923C73.0017 41.4149 73.048 41.4353 73.0965 41.4534C73.1406 41.476 73.1847 41.4964 73.2288 41.5145C73.2729 41.5326 73.3192 41.5507 73.3677 41.5688C73.4118 41.5869 73.4581 41.605 73.5066 41.6231H64.9934C65.0728 41.5869 65.1477 41.5484 65.2183 41.5077C65.2933 41.467 65.3638 41.4217 65.43 41.372C65.5005 41.3267 65.5667 41.277 65.6284 41.2227C65.6902 41.1684 65.7519 41.1118 65.8136 41.053C65.871 40.9897 65.9261 40.9263 65.979 40.863C66.0319 40.7997 66.0826 40.7341 66.1311 40.6662C66.1796 40.6029 66.2237 40.535 66.2634 40.4626C66.3075 40.3902 66.3472 40.3178 66.3825 40.2455C66.4222 40.1686 66.4575 40.0916 66.4883 40.0147C66.5236 39.9378 66.5545 39.8609 66.5809 39.784C66.6118 39.7071 66.6383 39.6279 66.6603 39.5465C66.6824 39.4651 66.7044 39.3836 66.7265 39.3022C66.7441 39.2253 66.7595 39.1461 66.7728 39.0647C66.7904 38.9878 66.8036 38.9086 66.8125 38.8272C66.8213 38.7457 66.8279 38.6643 66.8323 38.5828C66.8367 38.5059 66.8389 38.4268 66.8389 38.3453V30.9959C66.8389 30.6747 66.8345 30.358 66.8257 30.0458C66.8257 29.9192 66.8213 29.7925 66.8125 29.6658C66.7992 29.5346 66.7794 29.4079 66.7529 29.2858C66.7265 29.1591 66.6934 29.0347 66.6537 28.9126C66.6184 28.7904 66.5743 28.6728 66.5214 28.5597C66.4817 28.4782 66.4398 28.3991 66.3957 28.3222C66.3472 28.2498 66.2965 28.1774 66.2436 28.105C66.1907 28.0371 66.1333 27.9715 66.0716 27.9082C66.0143 27.8449 65.9503 27.7838 65.8798 27.725C65.8136 27.6752 65.7431 27.6277 65.6681 27.5825C65.5975 27.5372 65.5226 27.4965 65.4432 27.4603C65.3638 27.4241 65.2844 27.3902 65.2051 27.3585C65.1257 27.3314 65.0441 27.3065 64.9603 27.2839H74.8164C75.1824 27.2839 75.5837 27.302 76.0202 27.3382C76.1305 27.3472 76.2385 27.3585 76.3444 27.3721C76.4546 27.3857 76.5627 27.4015 76.6685 27.4196C76.7743 27.4377 76.8802 27.4581 76.986 27.4807C77.0918 27.5033 77.1977 27.5282 77.3035 27.5553C77.4049 27.5825 77.5064 27.6119 77.6078 27.6435C77.7092 27.6752 77.8107 27.7114 77.9121 27.7521C78.0091 27.7883 78.1061 27.829 78.2031 27.8743C78.3001 27.9195 78.395 27.9693 78.4876 28.0236C78.5758 28.0688 78.6618 28.1208 78.7455 28.1796C78.8293 28.2385 78.9109 28.3018 78.9903 28.3697C79.0653 28.4375 79.138 28.5099 79.2086 28.5868C79.2747 28.6637 79.3387 28.7429 79.4004 28.8243C79.4357 28.8741 79.471 28.9261 79.5062 28.9804C79.5415 29.0302 79.5746 29.0822 79.6055 29.1365C79.6363 29.1908 79.6672 29.2451 79.6981 29.2994C79.7289 29.3537 79.7576 29.4079 79.7841 29.4622C79.8282 29.5527 79.8678 29.6455 79.9031 29.7405C79.9384 29.84 79.9693 29.9373 79.9957 30.0323C80.0222 30.1318 80.0442 30.2313 80.0619 30.3309C80.0751 30.4349 80.0861 30.5367 80.095 30.6362C80.117 30.867 80.1148 31.0977 80.0883 31.3284C80.0663 31.5592 80.02 31.7854 79.9494 32.0071C79.8833 32.2287 79.7951 32.4414 79.6848 32.6449C79.5746 32.8485 79.4445 33.0408 79.2946 33.2218C79.2813 33.2421 79.2615 33.2625 79.2483 33.2828C79.2174 33.319 79.1865 33.3575 79.1557 33.3982C79.1248 33.4344 79.0939 33.4706 79.063 33.5068C79.0322 33.543 78.9991 33.5792 78.9638 33.6154C78.9285 33.6516 78.8955 33.6855 78.8646 33.7172L78.772 33.8122C78.697 33.88 78.6199 33.9456 78.5405 34.009C78.4611 34.0678 78.3795 34.1243 78.2957 34.1786C78.2119 34.2374 78.126 34.2895 78.0378 34.3347C77.9496 34.3845 77.8614 34.4297 77.7732 34.4704C79.1027 37.3342 80.9549 40.768 82.5358 41.4873C82.6593 41.4149 82.8225 41.3109 83.0253 41.1752C83.0782 41.139 83.1333 41.1028 83.1907 41.0666C83.2436 41.0304 83.2965 40.9919 83.3494 40.9512C83.3979 40.9105 83.4487 40.8698 83.5016 40.8291C83.5545 40.7929 83.6052 40.7522 83.6537 40.7069C83.7199 40.6436 83.7838 40.5757 83.8455 40.5033C83.9029 40.4355 83.9602 40.3631 84.0175 40.2862C84.0704 40.2138 84.1212 40.1369 84.1697 40.0554C84.2182 39.9785 84.2645 39.8971 84.3086 39.8111C84.5423 39.3949 84.7628 38.947 84.9701 38.4675C85.1773 37.9925 85.3647 37.5333 85.5323 37.0899C85.6999 36.6465 85.8256 36.3117 85.9094 36.0855L87.4308 32.1631C87.4704 32.0613 87.5101 31.9595 87.5498 31.8442C87.6777 31.4823 87.8607 30.9891 88.0988 30.3648C88.1209 30.306 88.1429 30.2449 88.165 30.1816C88.187 30.1182 88.2091 30.0526 88.2311 29.9848C88.2488 29.9214 88.2664 29.8581 88.2841 29.7948C88.3017 29.7269 88.3171 29.6613 88.3304 29.598C88.3436 29.5346 88.3546 29.469 88.3634 29.4012C88.3723 29.3378 88.3767 29.2722 88.3767 29.2044C88.3767 29.1365 88.3723 29.0709 88.3634 29.0076C88.3546 28.9397 88.3436 28.8741 88.3304 28.8108C88.3127 28.7384 88.2907 28.6683 88.2642 28.6004C88.2378 28.5325 88.2069 28.4669 88.1716 28.4036C88.1363 28.3357 88.0988 28.2724 88.0592 28.2136C88.0151 28.1548 87.9688 28.0982 87.9202 28.0439C87.8762 27.9987 87.8321 27.9557 87.788 27.915C87.7394 27.8743 87.6909 27.8336 87.6424 27.7928C87.5939 27.7566 87.5432 27.7205 87.4903 27.6843C87.4418 27.6481 87.3911 27.6141 87.3381 27.5825C87.2764 27.5508 87.2147 27.5191 87.1529 27.4875C87.0912 27.4603 87.0295 27.4332 86.9677 27.406C86.9016 27.3834 86.8354 27.3608 86.7693 27.3382C86.7075 27.3201 86.6414 27.302 86.5708 27.2839H94.9782L96.8965 32.896L97.8887 35.848L98.623 38.0332C98.6627 38.1372 98.7024 38.2413 98.742 38.3453C98.7861 38.4449 98.8302 38.5467 98.8743 38.6507C98.9184 38.7502 98.9647 38.8498 99.0132 38.9493C99.0662 39.0534 99.1191 39.1529 99.172 39.2479C99.2205 39.3429 99.2712 39.4334 99.3241 39.5193C99.3771 39.6098 99.4322 39.698 99.4895 39.784C99.5513 39.8745 99.613 39.9604 99.6747 40.0419C99.7365 40.1278 99.8004 40.2093 99.8666 40.2862C99.9371 40.3721 100.01 40.4536 100.085 40.5305C100.164 40.6119 100.244 40.6888 100.323 40.7612C100.402 40.8381 100.486 40.9105 100.574 40.9784C100.658 41.0462 100.744 41.1118 100.832 41.1752C100.868 41.1978 100.903 41.2227 100.938 41.2498C100.973 41.2724 101.009 41.2951 101.044 41.3177C101.079 41.3403 101.115 41.3629 101.15 41.3855C101.185 41.4036 101.22 41.424 101.256 41.4466C101.291 41.4647 101.328 41.4828 101.368 41.5009C101.408 41.519 101.447 41.5371 101.487 41.5552C101.527 41.5688 101.567 41.5823 101.606 41.5959C101.642 41.605 101.677 41.6117 101.712 41.6163C101.778 41.5846 101.842 41.5484 101.904 41.5077C101.97 41.467 102.034 41.424 102.096 41.3788C102.157 41.3335 102.217 41.286 102.274 41.2362C102.336 41.1865 102.393 41.1322 102.446 41.0734C102.504 41.0191 102.557 40.9625 102.605 40.9037C102.658 40.8494 102.709 40.7906 102.757 40.7273C102.806 40.6639 102.852 40.6006 102.896 40.5373C102.94 40.4739 102.982 40.4083 103.022 40.3405C103.097 40.2138 103.165 40.0826 103.227 39.9469C103.289 39.8111 103.344 39.6732 103.392 39.5329C103.436 39.3927 103.474 39.2502 103.505 39.1054C103.536 38.9606 103.56 38.8136 103.577 38.6643V30.2834C103.573 30.22 103.569 30.1589 103.564 30.1001C103.555 30.0368 103.547 29.9757 103.538 29.9169C103.529 29.8536 103.518 29.7925 103.505 29.7337C103.496 29.6749 103.483 29.6138 103.465 29.5505C103.447 29.469 103.425 29.3898 103.399 29.3129C103.377 29.2315 103.35 29.1501 103.319 29.0686C103.293 28.9917 103.262 28.9148 103.227 28.8379C103.192 28.761 103.156 28.6864 103.121 28.614C103.081 28.5371 103.039 28.4647 102.995 28.3968C102.951 28.3244 102.905 28.2566 102.856 28.1932C102.808 28.1254 102.757 28.0598 102.704 27.9964C102.651 27.9331 102.596 27.872 102.539 27.8132C102.477 27.7544 102.415 27.7001 102.354 27.6503C102.288 27.596 102.219 27.5463 102.149 27.501C102.078 27.4603 102.005 27.4219 101.93 27.3857C101.855 27.345 101.78 27.311 101.705 27.2839H116.536V31.6949ZM133 27.2907V32.6653C132.974 32.5115 132.938 32.3622 132.894 32.2174C132.846 32.0727 132.788 31.9301 132.722 31.7899C132.656 31.6542 132.581 31.523 132.497 31.3963C132.409 31.2696 132.314 31.1475 132.213 31.0298C132.12 30.9348 132.023 30.8421 131.922 30.7516C131.82 30.6611 131.715 30.5752 131.604 30.4937C131.494 30.4168 131.382 30.3444 131.267 30.2766C131.148 30.2087 131.027 30.1476 130.903 30.0933C130.788 30.0436 130.674 29.9961 130.559 29.9508C130.44 29.9056 130.321 29.8671 130.202 29.8355C130.083 29.7993 129.962 29.7654 129.838 29.7337C129.715 29.7065 129.593 29.6817 129.474 29.659C129.377 29.6455 129.28 29.6319 129.183 29.6183C129.086 29.6047 128.989 29.5934 128.892 29.5844C128.795 29.5708 128.698 29.5618 128.601 29.5572C128.504 29.5527 128.405 29.5482 128.304 29.5437H127.84V38.2707C127.84 38.3657 127.843 38.4607 127.847 38.5557C127.856 38.6462 127.867 38.7367 127.88 38.8272C127.893 38.9222 127.909 39.0149 127.926 39.1054C127.944 39.1959 127.966 39.2864 127.993 39.3768C128.019 39.4673 128.048 39.5555 128.079 39.6415C128.109 39.7275 128.145 39.8134 128.184 39.8994C128.22 39.9853 128.262 40.069 128.31 40.1505C128.354 40.2319 128.401 40.3111 128.449 40.388C128.502 40.4649 128.555 40.5395 128.608 40.6119C128.665 40.6843 128.727 40.7544 128.793 40.8223C128.855 40.8901 128.921 40.9535 128.991 41.0123C129.058 41.0756 129.128 41.1344 129.203 41.1887C129.278 41.243 129.357 41.2928 129.441 41.338C129.525 41.3878 129.611 41.4308 129.699 41.467C129.783 41.5032 129.871 41.5348 129.964 41.562C130.056 41.5891 130.149 41.6095 130.242 41.6231H120.835C120.919 41.6004 121.003 41.5756 121.087 41.5484C121.166 41.5167 121.246 41.4828 121.325 41.4466C121.404 41.4059 121.481 41.3652 121.556 41.3245C121.631 41.2792 121.704 41.2295 121.775 41.1752C121.845 41.1254 121.914 41.0734 121.98 41.0191C122.046 40.9648 122.108 40.9082 122.165 40.8494C122.227 40.7861 122.286 40.7228 122.344 40.6594C122.397 40.5961 122.449 40.5305 122.502 40.4626C122.551 40.3902 122.599 40.3178 122.648 40.2455C122.692 40.1731 122.734 40.0984 122.774 40.0215C122.813 39.9446 122.849 39.8677 122.879 39.7908C122.91 39.7094 122.939 39.6279 122.965 39.5465C122.983 39.4922 123.001 39.4356 123.018 39.3768C123.032 39.318 123.045 39.2592 123.058 39.2004C123.071 39.1416 123.082 39.0828 123.091 39.024C123.1 38.9651 123.107 38.9063 123.111 38.8475V29.5437C122.97 29.5346 122.831 29.5278 122.694 29.5233C122.553 29.5188 122.412 29.521 122.271 29.5301C122.13 29.5346 121.991 29.5437 121.854 29.5572C121.713 29.5753 121.574 29.5957 121.437 29.6183C121.301 29.6409 121.164 29.6681 121.027 29.6998C120.891 29.7359 120.758 29.7744 120.63 29.8151C120.498 29.8604 120.368 29.9101 120.24 29.9644C120.112 30.0187 119.987 30.0798 119.863 30.1476C119.74 30.211 119.623 30.2788 119.512 30.3512C119.398 30.4281 119.29 30.5096 119.188 30.5955C119.083 30.6815 118.981 30.772 118.884 30.867C118.791 30.962 118.701 31.0615 118.613 31.1656C118.525 31.2787 118.445 31.3963 118.375 31.5184C118.3 31.6406 118.234 31.7673 118.176 31.8985C118.123 32.0297 118.077 32.1631 118.037 32.2989C117.998 32.4391 117.969 32.5794 117.951 32.7196V27.2907H133ZM92.2529 35.2983L90.6786 30.6362L89.1704 35.2983H92.2529ZM72.521 33.2218C72.6225 33.2263 72.7217 33.2263 72.8187 33.2218C72.9201 33.2173 73.0193 33.2105 73.1164 33.2014C73.2178 33.1924 73.317 33.1788 73.414 33.1607C73.511 33.1471 73.6081 33.129 73.7051 33.1064C73.7889 33.0838 73.8726 33.0566 73.9564 33.025C74.0358 32.9933 74.113 32.9549 74.188 32.9096C74.2629 32.8644 74.3335 32.8123 74.3996 32.7535C74.4702 32.6992 74.5341 32.6404 74.5915 32.5771C74.6532 32.4911 74.7083 32.4006 74.7568 32.3056C74.8053 32.2106 74.845 32.1111 74.8759 32.0071C74.9068 31.903 74.9266 31.7989 74.9354 31.6949C74.9487 31.5863 74.9509 31.48 74.942 31.3759C74.9509 31.2628 74.9509 31.1497 74.942 31.0366C74.9288 30.9235 74.909 30.8104 74.8825 30.6973C74.856 30.5887 74.8208 30.4824 74.7767 30.3784C74.7326 30.2698 74.6797 30.168 74.6179 30.073C74.565 30.0051 74.5077 29.9418 74.4459 29.883C74.3842 29.8242 74.3158 29.7699 74.2409 29.7201C74.1703 29.6703 74.0953 29.6274 74.016 29.5912C73.941 29.555 73.8616 29.5256 73.7778 29.503C73.6808 29.4758 73.5838 29.4532 73.4868 29.4351C73.3898 29.417 73.2928 29.4012 73.1957 29.3876C73.0987 29.3785 72.9995 29.374 72.8981 29.374C72.8011 29.3695 72.7018 29.3695 72.6004 29.374C72.1638 29.3921 71.725 29.4012 71.2841 29.4012V33.2014C71.6809 33.2014 72.0933 33.2082 72.521 33.2218Z" fill="#008C00"/>
<path d="M67.9833 10.5356C68.0626 10.5085 68.142 10.4836 68.2214 10.4609C68.3008 10.4383 68.3824 10.418 68.4661 10.3999C68.5455 10.3818 68.6271 10.3659 68.7109 10.3524C68.4992 10.8138 68.2964 11.2776 68.1023 11.7435C67.9039 12.2095 67.7143 12.6778 67.5335 13.1483C67.3527 13.6233 67.1785 14.0983 67.0109 14.5734C66.8477 15.0529 66.689 15.5347 66.5346 16.0188C66.1113 17.3761 65.7453 18.7514 65.4366 20.1448C65.0132 22.0857 64.4576 25.6484 64.3914 25.8316C64.3297 26.0171 64.2503 26.1958 64.1533 26.3677C64.0563 26.5396 63.9438 26.7003 63.816 26.8496C63.6881 26.9988 63.547 27.1346 63.3926 27.2567C63.2383 27.3743 63.0729 27.4784 62.8965 27.5689C62.8744 27.5779 62.8502 27.5825 62.8237 27.5825C62.8017 27.5825 62.7796 27.5779 62.7576 27.5689C62.7311 27.5598 62.7091 27.5485 62.6914 27.535C62.6738 27.5214 62.6584 27.5033 62.6451 27.4807C62.5922 27.4128 62.6914 27.3042 62.7377 27.2431C62.8303 27.1391 62.9097 27.0237 62.9759 26.8971C63.042 26.7749 63.0905 26.6437 63.1214 26.5035C63.1523 26.3677 63.1677 26.2297 63.1677 26.0895C63.1633 25.9493 63.1434 25.809 63.1082 25.6688C62.8436 24.3115 58.2132 24.1351 52.4584 25.5941C46.6969 27.0599 42.7611 29.4351 43.1778 30.7516C43.2131 30.8918 43.2638 31.023 43.33 31.1452C43.3961 31.2719 43.4755 31.3872 43.5681 31.4913C43.6607 31.5953 43.7665 31.6858 43.8856 31.7627C44.0003 31.8442 44.1259 31.9075 44.2626 31.9528C44.3288 31.9867 44.4677 32.0342 44.4545 32.1156C44.4545 32.1382 44.4501 32.1609 44.4412 32.1835C44.4324 32.2061 44.4192 32.2265 44.4016 32.2446C44.3839 32.2627 44.3641 32.2785 44.342 32.2921C44.32 32.3011 44.2979 32.3079 44.2759 32.3124C44.0774 32.3169 43.8812 32.3034 43.6872 32.2717C43.4931 32.24 43.3035 32.1903 43.1183 32.1224C42.9375 32.0545 42.7633 31.9686 42.5957 31.8645C42.4281 31.7605 42.2716 31.6406 42.1261 31.5049C42.1261 31.5049 39.8903 28.485 38.5872 26.9921C37.6412 25.9131 36.6556 24.868 35.6304 23.884C35.2687 23.5311 34.8983 23.1828 34.5191 22.8389C34.1442 22.4996 33.7628 22.1648 33.3747 21.8346C32.9911 21.5043 32.6008 21.1808 32.2039 20.8641C31.807 20.5475 31.4057 20.2376 31 19.9344C31.0794 19.8982 31.1588 19.8643 31.2381 19.8327C31.3175 19.8055 31.3969 19.7784 31.4763 19.7512C31.5556 19.7286 31.6372 19.7082 31.721 19.6901C31.8048 19.672 31.8886 19.6562 31.9724 19.6426C33.4276 19.5273 34.7572 20.647 35.4782 21.2781H35.4848C36.0272 20.647 37.1054 19.4798 38.4152 19.3169C38.4482 19.473 38.4747 19.7851 38.4879 19.9548C38.5078 20.2195 38.5012 20.4909 38.4615 20.7556C38.4284 21.0202 38.3623 21.2781 38.2696 21.5292C38.1837 21.7871 38.0646 22.0246 37.9191 22.2553C37.7802 22.4793 37.6148 22.6896 37.423 22.8864C37.6875 23.0267 37.9565 23.1511 38.23 23.2597C38.5078 23.3682 38.79 23.461 39.0767 23.5379C39.3633 23.6103 39.6543 23.6668 39.9498 23.7076C40.2453 23.7483 40.5407 23.7709 40.8362 23.7754C40.9067 23.7709 40.9751 23.7618 41.0412 23.7483C41.1074 23.7392 41.1757 23.7279 41.2463 23.7143C41.3125 23.6962 41.3786 23.6781 41.4447 23.6601C41.5109 23.6374 41.5748 23.6125 41.6366 23.5854C41.9078 23.4836 42.1525 23.3411 42.3774 23.1579C42.6023 22.9814 42.8008 22.7711 42.9661 22.5335C43.1249 22.296 43.2506 22.0314 43.3366 21.7599C43.4226 21.4817 43.4689 21.1967 43.4689 20.9117C43.7665 21.1017 44.0973 21.2306 44.4412 21.3052C44.7918 21.3731 45.149 21.3799 45.4996 21.3256C45.8436 21.2645 46.1809 21.1424 46.4852 20.9659C46.7895 20.7827 47.0607 20.552 47.279 20.2738C47.3143 20.2195 47.3473 20.1652 47.3782 20.1109C47.4091 20.0611 47.4399 20.0091 47.4708 19.9548C47.5017 19.9005 47.5303 19.8462 47.5568 19.7919C47.5877 19.7331 47.6163 19.6766 47.6428 19.6223C47.6869 19.5318 47.731 19.4391 47.7751 19.344C47.7817 19.3101 47.7949 19.2694 47.8082 19.2355C47.8082 19.24 47.8082 19.2468 47.8082 19.2558C47.9625 18.8939 48.0882 18.5252 48.1852 18.1497C48.2822 17.7697 48.3484 17.3851 48.3837 16.996C48.4189 16.607 48.4233 16.2179 48.3969 15.8288C48.3704 15.4397 48.3131 15.0552 48.2249 14.6752C48.2073 14.6842 48.1874 14.6933 48.1654 14.7023C47.8942 14.8109 47.6163 14.8923 47.3253 14.9398C47.0409 14.9873 46.7432 15.0009 46.4521 14.9805C46.1611 14.9602 45.8767 14.9059 45.5988 14.8177C45.321 14.7294 45.0498 14.6141 44.7984 14.4648C44.772 14.4467 44.7455 14.4309 44.7191 14.4173C44.6926 14.3992 44.6661 14.3811 44.6397 14.363C44.6132 14.3449 44.5868 14.3268 44.5603 14.3087C44.5339 14.2951 44.5074 14.277 44.4809 14.2544C44.4942 14.2273 44.5074 14.2001 44.5206 14.173C44.5339 14.1413 44.5493 14.1119 44.5669 14.0848C44.5802 14.0576 44.5956 14.0305 44.6132 14.0033C44.6265 13.9762 44.6419 13.949 44.6595 13.9219C44.7918 13.6957 44.9462 13.4853 45.1226 13.2908C45.299 13.0962 45.493 12.9221 45.7047 12.7682C45.9163 12.6144 46.1412 12.4832 46.3794 12.3746C46.6175 12.2706 46.8645 12.1892 47.1202 12.1303C47.2393 12.1077 47.3606 12.0896 47.484 12.0761C46.8093 10.9224 46.6109 8.7169 47.3319 7.4886C47.3495 7.45241 47.3694 7.41848 47.3914 7.38681C47.4135 7.35514 47.4355 7.32121 47.4576 7.28502C47.4796 7.25335 47.5017 7.22168 47.5237 7.19001C47.5458 7.15834 47.57 7.12668 47.5965 7.09501L47.6693 7L47.7817 7.0475C47.8214 7.0656 47.8611 7.0837 47.9008 7.10179C47.9405 7.11989 47.9802 7.13799 48.0198 7.15608C48.0639 7.1787 48.1058 7.19906 48.1455 7.21716C48.1852 7.23978 48.2227 7.2624 48.258 7.28502C49.4883 8.01793 50.4872 10.0198 50.4475 11.3499C50.5621 11.3047 50.6768 11.264 50.7914 11.2278C51.0693 11.1464 51.3603 11.0921 51.6514 11.0785C51.949 11.0581 52.2401 11.0785 52.5311 11.126C52.8156 11.1803 53.1 11.2617 53.3712 11.3771C53.6358 11.4924 53.8938 11.6417 54.1319 11.8182C54.1143 11.8453 54.0988 11.8725 54.0856 11.8996C54.0724 11.9313 54.0591 11.9607 54.0459 11.9878C54.0283 12.015 54.0128 12.0421 53.9996 12.0693C53.982 12.0964 53.9665 12.1236 53.9533 12.1507C53.8012 12.4018 53.6226 12.6325 53.4241 12.8429C53.2191 13.0533 52.9942 13.2433 52.7494 13.3994C52.5047 13.5554 52.2401 13.6844 51.9623 13.7862C51.691 13.8812 51.4 13.949 51.1156 13.983C51.0935 13.983 51.0715 13.9852 51.0494 13.9898C51.1685 14.3969 51.314 14.7905 51.4992 15.1706C51.6844 15.5574 51.9027 15.917 52.1475 16.2631C52.3922 16.6092 52.67 16.935 52.9677 17.2335C53.272 17.5254 53.5961 17.7968 53.9467 18.0411C54.1121 18.1565 54.284 18.265 54.456 18.3668C54.7802 18.5026 55.1241 18.5772 55.4813 18.5908C55.8319 18.6044 56.1825 18.5501 56.5132 18.4347C56.8506 18.3261 57.1549 18.1497 57.4261 17.9257C57.6973 17.695 57.9288 17.4236 58.1008 17.1182C58.2331 17.3693 58.4117 17.6 58.6167 17.8036C58.8218 18.0004 59.0533 18.17 59.3113 18.3058C59.5626 18.4347 59.8405 18.5297 60.1183 18.584C60.4027 18.6315 60.6938 18.6451 60.9782 18.6111C61.0929 18.6021 61.2053 18.5863 61.3156 18.5636C61.4258 18.541 61.5361 18.5116 61.6463 18.4754C61.7521 18.4437 61.858 18.403 61.9638 18.3533C62.0652 18.3035 62.1645 18.2469 62.2615 18.1836C62.482 18.0434 62.6936 17.8895 62.8965 17.7222C63.0993 17.5593 63.2934 17.3851 63.4786 17.1996C63.6638 17.0096 63.8402 16.8128 64.0078 16.6092C64.1709 16.4056 64.3231 16.193 64.4642 15.9713C64.2062 15.8967 63.9615 15.7881 63.73 15.6592C63.4918 15.5302 63.2735 15.3741 63.0751 15.1977C62.87 15.0213 62.6914 14.8245 62.5327 14.6073C62.3673 14.3901 62.235 14.1594 62.1226 13.9151C62.1049 13.8789 62.0895 13.8405 62.0763 13.7997C62.0586 13.7636 62.0432 13.7251 62.03 13.6844C62.0123 13.6482 61.9969 13.6097 61.9837 13.569C61.9704 13.5328 61.9594 13.4944 61.9506 13.4536C62.2416 13.3383 62.5459 13.2568 62.8568 13.2161C63.1677 13.1754 63.4852 13.1754 63.7961 13.2093C64.107 13.2501 64.4113 13.3247 64.7089 13.4401C65 13.5487 65.2778 13.698 65.5358 13.8812C65.5556 13.5351 65.6218 13.1958 65.7342 12.87C65.8401 12.5443 65.9988 12.2321 66.1907 11.9471C66.3825 11.6621 66.6206 11.4042 66.8786 11.1803C67.1432 10.9563 67.4409 10.7731 67.7517 10.6306C67.8267 10.5944 67.9039 10.5627 67.9833 10.5356Z" fill="#FFA600"/>
<path d="M47.4047 28.5122C48.1852 28.1819 48.9724 27.8765 49.7662 27.596C50.5643 27.3201 51.3713 27.069 52.1872 26.8428C52.9986 26.6166 53.8188 26.4198 54.6479 26.2524C55.4769 26.085 56.3104 25.9447 57.1482 25.8316C57.9817 25.7163 63.6837 26.4763 63.6837 34.1515C63.6837 41.8334 58.2265 46.2105 50.7914 46.2105C43.363 46.2105 39.4471 42.9396 39.4471 39.4447C39.4471 35.9566 41.9541 35.4001 43.1183 35.4001C44.2825 35.4001 46.3926 36.452 46.3926 39.1868C46.3926 39.1868 44.2957 38.6711 44.2957 40.4897C44.2957 42.3084 46.7763 43.4417 50.1829 43.4417C53.5829 43.4417 58.3918 41.9488 58.3918 35.2983C58.3918 28.2068 55.1109 27.8946 52.8288 27.8946V40.0554C52.8354 40.2047 52.8751 40.3472 52.9412 40.483C53.0074 40.6187 53.0934 40.7341 53.2058 40.8358C53.3183 40.9376 53.444 41.0123 53.5829 41.0598C53.7284 41.1141 53.8739 41.1344 54.0195 41.1276C54.1716 41.1209 52.8222 42.1388 49.8521 42.1388C46.8887 42.1388 46.042 41.1887 46.042 41.1887C46.042 41.1887 47.4444 41.1887 47.4444 39.9536C47.4444 38.7118 47.4047 28.5122 47.4047 28.5122Z" fill="#008C00"/>
<path d="M129.792 54.2385C129.818 54.3426 129.843 54.4444 129.865 54.5439C129.891 54.648 129.911 54.752 129.924 54.8561C129.942 54.9601 129.957 55.0665 129.97 55.175C129.979 55.3651 129.975 55.5573 129.957 55.7519C129.94 55.9464 129.909 56.1364 129.865 56.3219C129.821 56.5119 129.763 56.6974 129.693 56.8784C129.626 57.0593 129.545 57.2335 129.448 57.4009C129.364 57.5502 129.271 57.6927 129.17 57.8284C129.069 57.9642 128.958 58.0931 128.839 58.2152C128.725 58.3419 128.601 58.4595 128.469 58.5681C128.341 58.6767 128.204 58.7785 128.059 58.8735C127.913 58.9685 127.763 59.0567 127.609 59.1382C127.459 59.2196 127.302 59.2942 127.139 59.3621C126.981 59.43 126.817 59.491 126.65 59.5453C126.482 59.5996 126.315 59.6449 126.147 59.6811C125.971 59.7218 125.794 59.7557 125.618 59.7828C125.442 59.8145 125.265 59.8394 125.089 59.8575C124.912 59.8801 124.736 59.896 124.56 59.905C124.379 59.914 124.2 59.9208 124.024 59.9254C123.918 59.9254 123.812 59.9231 123.706 59.9186C123.6 59.914 123.495 59.9095 123.389 59.905C123.283 59.9005 123.177 59.8937 123.071 59.8846C122.97 59.8756 122.866 59.8643 122.76 59.8507C122.654 59.8371 122.549 59.8236 122.443 59.81C122.341 59.7919 122.238 59.7738 122.132 59.7557C122.03 59.7376 121.927 59.715 121.821 59.6878C121.72 59.6652 121.618 59.6426 121.517 59.62C121.42 59.5928 121.323 59.5657 121.226 59.5385C121.133 59.5159 121.038 59.4933 120.941 59.4707C120.844 59.4481 120.747 59.4277 120.65 59.4096C120.553 59.3915 120.456 59.3734 120.359 59.3553C120.262 59.3417 120.165 59.3282 120.068 59.3146C119.971 59.301 119.874 59.292 119.777 59.2875C119.68 59.2784 119.583 59.2716 119.486 59.2671C119.389 59.2671 119.292 59.2671 119.195 59.2671C119.129 59.2671 119.065 59.2694 119.003 59.2739C118.941 59.2784 118.877 59.2829 118.811 59.2875C118.75 59.2965 118.686 59.3033 118.619 59.3078C118.558 59.3169 118.496 59.3282 118.434 59.3417C118.434 59.3417 118.434 59.3395 118.434 59.335C118.434 59.335 118.432 59.335 118.428 59.335C118.234 59.344 118.04 59.3666 117.846 59.4028C117.656 59.4345 117.468 59.4797 117.283 59.5385C117.094 59.5928 116.911 59.6584 116.734 59.7353C116.553 59.8123 116.379 59.9005 116.212 60V53.7364C116.291 53.863 116.375 53.9852 116.463 54.1028C116.551 54.225 116.644 54.3426 116.741 54.4557C116.833 54.5688 116.93 54.6796 117.032 54.7882C117.133 54.8968 117.239 55.0009 117.349 55.1004C117.451 55.1954 117.554 55.2881 117.66 55.3786C117.766 55.4691 117.872 55.5573 117.978 55.6433C118.088 55.7292 118.198 55.8152 118.309 55.9012C118.419 55.9826 118.531 56.0618 118.646 56.1387C118.818 56.2518 118.994 56.3604 119.175 56.4644C119.352 56.5685 119.532 56.6657 119.718 56.7562C119.903 56.8512 120.09 56.9394 120.28 57.0209C120.469 57.1023 120.659 57.1792 120.849 57.2516C120.95 57.2833 121.049 57.3149 121.146 57.3466C121.248 57.3783 121.347 57.4077 121.444 57.4348C121.545 57.462 121.647 57.4869 121.748 57.5095C121.85 57.5321 121.951 57.5547 122.053 57.5773C122.163 57.6 122.275 57.6181 122.39 57.6316C122.505 57.6497 122.619 57.6633 122.734 57.6724C122.849 57.6814 122.963 57.6859 123.078 57.6859C123.192 57.6904 123.307 57.6882 123.422 57.6791C123.528 57.6746 123.633 57.6656 123.739 57.652C123.841 57.6339 123.942 57.6113 124.044 57.5841C124.145 57.557 124.246 57.5253 124.348 57.4891C124.445 57.4529 124.54 57.41 124.632 57.3602C124.725 57.3104 124.809 57.2516 124.884 57.1837C124.963 57.1114 125.034 57.0344 125.095 56.953C125.157 56.8716 125.21 56.7834 125.254 56.6884C125.294 56.5933 125.325 56.4938 125.347 56.3898C125.364 56.3309 125.375 56.2721 125.38 56.2133C125.384 56.15 125.38 56.0889 125.367 56.0301C125.353 55.9668 125.333 55.9079 125.307 55.8537C125.281 55.7994 125.247 55.7473 125.208 55.6976C125.159 55.6433 125.106 55.589 125.049 55.5347C124.996 55.4849 124.941 55.4352 124.884 55.3854C124.826 55.3402 124.765 55.2972 124.698 55.2565C124.637 55.2158 124.573 55.1796 124.507 55.1479C124.423 55.1027 124.339 55.0597 124.255 55.019C124.171 54.9828 124.085 54.9466 123.997 54.9104C123.909 54.8787 123.821 54.847 123.733 54.8154C123.645 54.7837 123.556 54.7566 123.468 54.7339C123.27 54.6751 123.073 54.6254 122.879 54.5846L122.866 54.5779C122.833 54.5711 122.8 54.5643 122.76 54.5575C120.868 54.1232 119.228 53.6957 118.064 52.7999C118.006 52.7546 117.951 52.7094 117.898 52.6642C117.859 52.6325 117.821 52.6031 117.786 52.5759C117.779 52.5624 117.766 52.5556 117.76 52.542H117.753C117.674 52.4696 117.596 52.395 117.521 52.3181C117.446 52.2411 117.376 52.1597 117.31 52.0738C117.239 51.9923 117.173 51.9086 117.111 51.8227C117.05 51.7322 116.992 51.6417 116.939 51.5512C116.86 51.4155 116.794 51.273 116.741 51.1237C116.684 50.9789 116.637 50.8296 116.602 50.6758C116.567 50.522 116.542 50.3682 116.529 50.2143C116.512 50.056 116.507 49.8977 116.516 49.7393C116.503 49.3932 116.536 49.0471 116.609 48.7078C116.681 48.3685 116.794 48.0428 116.953 47.7306C117.105 47.4184 117.297 47.1266 117.521 46.862C117.746 46.5973 118.004 46.3666 118.289 46.163C118.43 46.068 118.573 45.9753 118.719 45.8848C118.864 45.7988 119.014 45.7196 119.168 45.6473C119.323 45.5749 119.479 45.5093 119.638 45.4505C119.797 45.3916 119.96 45.3396 120.128 45.2944C120.3 45.2491 120.474 45.2084 120.65 45.1722C120.827 45.136 121.003 45.1066 121.179 45.084C121.356 45.0569 121.534 45.0388 121.715 45.0297C121.892 45.0161 122.07 45.0094 122.251 45.0094C122.379 45.0048 122.509 45.0048 122.641 45.0094C122.769 45.0094 122.899 45.0139 123.032 45.0229C123.159 45.032 123.289 45.0433 123.422 45.0569C123.55 45.0704 123.678 45.0885 123.805 45.1111C124.275 45.1858 124.732 45.2604 125.188 45.3351C125.298 45.3487 125.408 45.3622 125.519 45.3758C125.629 45.3849 125.741 45.3939 125.856 45.403C125.966 45.412 126.077 45.421 126.187 45.4301C126.297 45.4346 126.409 45.4369 126.524 45.4369C128.118 45.4369 128.522 44.4393 128.522 44.4393V49.685C128.279 49.4588 128.079 49.2665 127.92 49.1082C127.757 48.9453 127.611 48.7983 127.483 48.6671C127.351 48.5359 127.225 48.4092 127.106 48.2871C127.075 48.2599 127.047 48.2328 127.02 48.2056C126.989 48.1785 126.959 48.1514 126.928 48.1242C126.897 48.0971 126.868 48.0699 126.842 48.0428C126.811 48.0156 126.78 47.9907 126.749 47.9681C126.683 47.9184 126.617 47.8709 126.551 47.8256C126.484 47.7758 126.416 47.7306 126.346 47.6899C126.275 47.6492 126.204 47.6107 126.134 47.5745C126.059 47.5338 125.986 47.4976 125.916 47.4659C125.81 47.4207 125.704 47.3777 125.598 47.337C125.492 47.2963 125.386 47.2578 125.281 47.2216C125.175 47.19 125.067 47.1583 124.956 47.1266C124.851 47.095 124.743 47.0656 124.632 47.0384C124.535 47.0113 124.438 46.9864 124.341 46.9638C124.244 46.9412 124.147 46.9231 124.05 46.9095C123.953 46.8959 123.854 46.8846 123.753 46.8756C123.656 46.871 123.556 46.8665 123.455 46.862C123.362 46.862 123.267 46.8642 123.17 46.8688C123.073 46.8733 122.979 46.8823 122.886 46.8959C122.789 46.905 122.694 46.9185 122.602 46.9366C122.509 46.9547 122.416 46.9751 122.324 46.9977C122.236 47.0203 122.15 47.0475 122.066 47.0791C121.982 47.1063 121.898 47.138 121.814 47.1741C121.735 47.2103 121.656 47.2488 121.576 47.2895C121.497 47.3302 121.42 47.3732 121.345 47.4184C121.274 47.4637 121.206 47.5112 121.14 47.561C121.074 47.6152 121.012 47.6695 120.954 47.7238C120.893 47.7826 120.835 47.8437 120.783 47.907C120.73 47.9749 120.681 48.0428 120.637 48.1106C120.606 48.1604 120.582 48.2147 120.564 48.2735C120.547 48.3278 120.533 48.3843 120.525 48.4432C120.52 48.502 120.52 48.5608 120.525 48.6196C120.533 48.6784 120.547 48.735 120.564 48.7893C120.582 48.8616 120.606 48.9295 120.637 48.9928C120.663 49.0607 120.697 49.124 120.736 49.1828C120.771 49.2462 120.813 49.305 120.862 49.3593C120.906 49.4136 120.957 49.4633 121.014 49.5086C121.076 49.5584 121.137 49.6081 121.199 49.6579C121.265 49.7031 121.334 49.7484 121.404 49.7936C121.47 49.8343 121.539 49.875 121.609 49.9158C121.68 49.952 121.753 49.9859 121.828 50.0176C121.903 50.0537 121.98 50.0877 122.059 50.1193C122.112 50.1374 122.165 50.1555 122.218 50.1736C122.271 50.1872 122.326 50.203 122.383 50.2211C122.436 50.2392 122.489 50.2551 122.542 50.2686C122.599 50.2822 122.654 50.2958 122.707 50.3094C124.097 50.6351 125.83 50.6351 127.516 51.5377C127.578 51.5693 127.638 51.601 127.695 51.6327C127.752 51.6689 127.81 51.7028 127.867 51.7345C127.924 51.7706 127.982 51.8068 128.039 51.843C128.096 51.8792 128.151 51.9177 128.204 51.9584L128.218 51.9652C128.266 51.9968 128.315 52.0308 128.363 52.067V52.0738C128.464 52.1416 128.561 52.2163 128.654 52.2977C128.747 52.3791 128.835 52.4651 128.919 52.5556C129.002 52.6461 129.08 52.7411 129.15 52.8406C129.221 52.9401 129.287 53.0442 129.349 53.1528C129.384 53.2116 129.419 53.2749 129.454 53.3428C129.485 53.4061 129.516 53.4694 129.547 53.5328C129.574 53.6006 129.6 53.6685 129.626 53.7364C129.653 53.7997 129.677 53.8653 129.699 53.9332C129.735 54.0372 129.765 54.139 129.792 54.2385ZM96.5922 56.5187C96.5922 56.7449 96.6055 56.9892 96.6319 57.2516C96.6363 57.3149 96.6429 57.3805 96.6518 57.4484C96.6606 57.5117 96.6716 57.5751 96.6848 57.6384C96.6981 57.7063 96.7113 57.7719 96.7245 57.8352C96.7422 57.8986 96.7598 57.9619 96.7774 58.0252C96.7907 58.084 96.8083 58.1429 96.8304 58.2017C96.8524 58.265 96.8767 58.3238 96.9031 58.3781C96.9252 58.4369 96.9516 58.4957 96.9825 58.5546C97.009 58.6088 97.0376 58.6654 97.0685 58.7242C97.0994 58.774 97.1346 58.826 97.1743 58.8803C97.2096 58.9301 97.2471 58.9776 97.2868 59.0228C97.3309 59.068 97.375 59.1133 97.4191 59.1585C97.4632 59.1992 97.5117 59.2377 97.5646 59.2739C97.6175 59.3146 97.6704 59.3531 97.7234 59.3893C97.7807 59.4209 97.8402 59.4503 97.902 59.4775C97.9637 59.5001 98.0254 59.5205 98.0872 59.5385C98.1489 59.5566 98.2128 59.5702 98.279 59.5793H90.9234L84.8642 49.9497V56.2676C84.8642 56.3762 84.8664 56.4848 84.8708 56.5933C84.8752 56.7019 84.8841 56.8128 84.8973 56.9259C84.9061 57.0345 84.9171 57.143 84.9304 57.2516C84.948 57.3602 84.9656 57.4665 84.9833 57.5706C85.0053 57.6791 85.0318 57.7855 85.0627 57.8895C85.0935 57.9981 85.1332 58.1021 85.1817 58.2017C85.2258 58.3012 85.2765 58.3962 85.3339 58.4867C85.3912 58.5817 85.4551 58.6722 85.5257 58.7581C85.5477 58.7853 85.572 58.8102 85.5985 58.8328C85.6249 58.8599 85.6492 58.8871 85.6712 58.9142C85.6977 58.9368 85.7263 58.9595 85.7572 58.9821C85.7837 59.0092 85.8101 59.0318 85.8366 59.0499C85.8675 59.0771 85.8983 59.102 85.9292 59.1246C85.9601 59.1472 85.9909 59.1698 86.0218 59.1925C86.0527 59.2151 86.0835 59.2377 86.1144 59.2603C86.1497 59.2829 86.1828 59.3033 86.2136 59.3214C86.3415 59.3983 86.4937 59.4843 86.67 59.5793H80.2405C80.2493 59.5793 80.2581 59.577 80.2669 59.5725C80.2758 59.5725 80.2846 59.5702 80.2934 59.5657C80.3022 59.5612 80.311 59.5589 80.3199 59.5589C80.3287 59.5544 80.3375 59.5499 80.3463 59.5453C80.4081 59.5227 80.4764 59.4978 80.5514 59.4707C80.6307 59.4481 80.7057 59.4232 80.7763 59.396C80.7895 59.387 80.8027 59.3802 80.816 59.3757C80.8292 59.3712 80.8424 59.3644 80.8557 59.3553C80.8733 59.3508 80.8865 59.344 80.8953 59.335C80.9086 59.3259 80.9218 59.3191 80.935 59.3146C80.9879 59.2829 81.0387 59.249 81.0872 59.2128C81.1357 59.1766 81.182 59.1382 81.2261 59.0974C81.2658 59.0567 81.3055 59.0137 81.3451 58.9685C81.3848 58.9233 81.4223 58.8758 81.4576 58.826C81.4885 58.7808 81.5193 58.7333 81.5502 58.6835C81.5811 58.6337 81.6075 58.584 81.6296 58.5342C81.656 58.4799 81.6803 58.4256 81.7023 58.3713C81.7244 58.317 81.7442 58.2627 81.7619 58.2085C81.7795 58.1542 81.795 58.0976 81.8082 58.0388C81.8258 57.9845 81.8413 57.928 81.8545 57.8691C81.8633 57.8103 81.8721 57.7515 81.8809 57.6927C81.8898 57.6384 81.8986 57.5819 81.9074 57.5231C81.9295 57.2833 81.9471 57.0503 81.9603 56.8241C81.9736 56.521 81.9824 56.2178 81.9868 55.9147V49.1218C81.978 48.8413 81.9736 48.6309 81.9736 48.4907C81.9736 48.4047 81.9736 48.3187 81.9736 48.2328C81.9691 48.1468 81.9647 48.0609 81.9603 47.9749C81.9515 47.889 81.9427 47.803 81.9339 47.717C81.925 47.6356 81.9162 47.5519 81.9074 47.4659C81.8942 47.3755 81.8787 47.2872 81.8611 47.2013C81.8479 47.1108 81.828 47.0226 81.8016 46.9366C81.7795 46.8507 81.7553 46.7647 81.7288 46.6788C81.7023 46.5928 81.6715 46.5091 81.6362 46.4277C81.6053 46.3508 81.5701 46.2738 81.5304 46.1969C81.4907 46.1245 81.4466 46.0544 81.3981 45.9866C81.3496 45.9187 81.2966 45.8531 81.2393 45.7898C81.1864 45.7264 81.1269 45.6676 81.0607 45.6133C80.9946 45.5545 80.9218 45.5025 80.8424 45.4572C80.7675 45.412 80.6881 45.3735 80.6043 45.3419C80.5205 45.3102 80.4345 45.2876 80.3463 45.274C80.2581 45.2559 80.1677 45.2469 80.0751 45.2469H87.53L93.695 54.9036V48.4907C93.695 48.4002 93.6927 48.312 93.6883 48.226C93.6839 48.14 93.6773 48.0541 93.6685 47.9681C93.6641 47.8822 93.6575 47.7939 93.6486 47.7035C93.6354 47.6175 93.6222 47.5315 93.609 47.4456C93.6001 47.3596 93.5847 47.2714 93.5627 47.1809C93.545 47.095 93.523 47.009 93.4965 46.9231C93.4745 46.8371 93.4458 46.7511 93.4105 46.6652C93.3796 46.5792 93.3444 46.4955 93.3047 46.4141C93.2694 46.3417 93.2319 46.2693 93.1922 46.1969C93.1481 46.1245 93.0996 46.0544 93.0467 45.9866C92.9938 45.9187 92.9387 45.8531 92.8813 45.7898C92.824 45.7309 92.7623 45.6744 92.6961 45.6201C92.6256 45.5658 92.5528 45.5161 92.4778 45.4708C92.3985 45.4256 92.3169 45.3871 92.2331 45.3555C92.1493 45.3238 92.0633 45.2989 91.9751 45.2808C91.8869 45.2627 91.7965 45.2514 91.7039 45.2469H98.279C98.2128 45.2559 98.1489 45.2695 98.0872 45.2876C98.0254 45.3012 97.9637 45.3215 97.902 45.3487C97.8402 45.3758 97.7807 45.4052 97.7234 45.4369C97.6704 45.4686 97.6175 45.5047 97.5646 45.5455C97.5117 45.5862 97.4632 45.6269 97.4191 45.6676C97.375 45.7083 97.3309 45.7536 97.2868 45.8033C97.2471 45.8486 97.2096 45.8961 97.1743 45.9458C97.1346 45.9956 97.0994 46.0476 97.0685 46.1019C97.0376 46.1562 97.009 46.2128 96.9825 46.2716C96.9516 46.3259 96.9252 46.3824 96.9031 46.4412C96.8767 46.5001 96.8524 46.5611 96.8304 46.6245C96.8083 46.6833 96.7907 46.7421 96.7774 46.8009C96.7598 46.8642 96.7422 46.9276 96.7245 46.9909C96.7113 47.0543 96.6981 47.1176 96.6848 47.1809C96.6716 47.2488 96.6606 47.3144 96.6518 47.3777C96.6429 47.4411 96.6363 47.5067 96.6319 47.5745C96.6055 47.8369 96.5922 48.0812 96.5922 48.3074V56.5187ZM76.9463 56.6069C76.9507 56.7291 76.9595 56.849 76.9728 56.9666C76.986 57.0842 77.0036 57.2018 77.0257 57.3195C77.0522 57.4326 77.083 57.5457 77.1183 57.6588C77.1536 57.7719 77.1933 57.885 77.2374 57.9981C77.2771 58.0886 77.3212 58.1768 77.3697 58.2627C77.4182 58.3487 77.4689 58.4347 77.5218 58.5206C77.5747 58.6021 77.632 58.6812 77.6938 58.7581C77.7555 58.835 77.8217 58.9097 77.8922 58.9821C77.9628 59.0454 78.0355 59.1065 78.1105 59.1653C78.1811 59.2196 78.2582 59.2739 78.342 59.3282C78.4214 59.3779 78.503 59.4232 78.5868 59.4639C78.6706 59.5091 78.7544 59.5476 78.8381 59.5793C78.8381 59.5793 67.9767 59.5861 65.6218 59.5861C63.2736 59.5861 61.7918 57.6859 59.9397 54.7543C59.5494 54.1368 59.1724 53.5192 58.8218 52.922C58.1603 53.7771 57.6113 54.51 57.2541 54.9782C57.2541 55.0642 57.2541 55.1502 57.2541 55.2361C57.2629 55.7021 57.2938 56.1771 57.3467 56.6612C57.3555 56.7743 57.371 56.8874 57.393 57.0005C57.4106 57.1136 57.4305 57.2245 57.4525 57.333C57.479 57.4461 57.5055 57.557 57.5319 57.6656C57.5628 57.7741 57.5959 57.8827 57.6311 57.9913C57.662 58.0863 57.6973 58.1791 57.737 58.2695C57.7767 58.36 57.8208 58.4505 57.8693 58.541C57.9178 58.6269 57.9707 58.7106 58.028 58.7921C58.0854 58.8735 58.1449 58.9527 58.2066 59.0296C58.2684 59.0974 58.3345 59.163 58.4051 59.2264C58.4756 59.2852 58.5506 59.3372 58.63 59.3825C58.7094 59.4322 58.7931 59.4729 58.8813 59.5046C58.9695 59.5363 59.0599 59.5612 59.1525 59.5793H50.1829C50.2843 59.5702 50.3835 59.5521 50.4806 59.525C50.5776 59.4978 50.6724 59.4616 50.765 59.4164C50.8576 59.3757 50.948 59.3282 51.0362 59.2739C51.12 59.2196 51.1994 59.1585 51.2743 59.0907C51.3449 59.0273 51.4132 58.9595 51.4794 58.8871C51.5411 58.8147 51.5985 58.74 51.6514 58.6631C51.7087 58.5862 51.7594 58.5048 51.8035 58.4188C51.852 58.3374 51.8961 58.2537 51.9358 58.1677C51.9755 58.0773 52.0108 57.9845 52.0416 57.8895C52.0769 57.7945 52.1078 57.6995 52.1343 57.6045C52.1607 57.5095 52.185 57.4122 52.207 57.3127C52.2291 57.2177 52.2467 57.1204 52.2599 57.0209C52.2864 56.8376 52.3062 56.668 52.3261 56.4916L52.3525 55.8469V47.4524C52.4804 47.4433 52.6061 47.4343 52.7296 47.4252C52.8575 47.4117 52.9832 47.3981 53.1066 47.3845C53.2345 47.3664 53.3602 47.3483 53.4837 47.3302C53.6116 47.3121 53.7372 47.2895 53.8607 47.2624C54.0988 47.2284 54.337 47.1877 54.5619 47.1402C54.7295 47.104 54.8948 47.0678 55.058 47.0316C55.2212 46.9909 55.3843 46.9479 55.5475 46.9027C55.7106 46.862 55.8738 46.8167 56.037 46.767C56.2001 46.7172 56.3611 46.6629 56.5199 46.6041C56.7315 46.5362 56.9366 46.4548 57.135 46.3734C57.1835 46.3508 57.2343 46.3304 57.2872 46.3123V50.9133L61.9175 45.3079C62.8436 44.1882 62.202 43.2721 62.202 43.2721H69.1938C68.7616 43.3581 68.3361 43.4757 67.9171 43.625C67.5026 43.7743 67.1013 43.953 66.7132 44.1611C66.3208 44.3692 65.9459 44.6022 65.5887 44.8601C65.2315 45.1179 64.8942 45.4007 64.5767 45.7083C63.9284 46.4548 63.1214 47.4388 62.2813 48.4974C63.1743 50.2143 64.2525 52.1891 65.2051 53.6821C66.8257 56.2133 69.0152 58.3238 71.1121 59.1789C71.1584 59.145 71.2113 59.111 71.2576 59.0703C71.3193 59.0115 71.3811 58.9504 71.4428 58.8871C71.5001 58.8237 71.5553 58.7581 71.6082 58.6903C71.6655 58.6179 71.7162 58.5455 71.7603 58.4731C71.8088 58.4007 71.8529 58.3261 71.8926 58.2492C71.9411 58.1406 71.9852 58.0298 72.0249 57.9167C72.0646 57.8081 72.0977 57.695 72.1241 57.5773C72.1506 57.4642 72.1704 57.3489 72.1837 57.2312C72.1925 57.1136 72.1969 56.996 72.1969 56.8784C72.2101 56.5391 72.2167 56.2495 72.2167 56.0097V48.4839C72.2212 48.3346 72.2189 48.1853 72.2101 48.036C72.2013 47.8867 72.1837 47.7397 72.1572 47.5949C72.1308 47.4456 72.0977 47.2986 72.058 47.1538C72.0183 47.0135 71.972 46.8733 71.9191 46.733C71.8794 46.6426 71.8375 46.5521 71.7934 46.4616C71.7449 46.3756 71.692 46.2919 71.6346 46.2105C71.5817 46.1291 71.5244 46.0499 71.4627 45.973C71.4009 45.8961 71.3348 45.8237 71.2642 45.7558C71.1937 45.6925 71.1231 45.6359 71.0525 45.5862C70.9776 45.5364 70.9004 45.4889 70.821 45.4437C70.7372 45.403 70.6535 45.3645 70.5697 45.3283C70.4859 45.2966 70.3999 45.2672 70.3117 45.2401H78.8778C78.7896 45.2718 78.7036 45.3057 78.6199 45.3419C78.5405 45.3735 78.4589 45.412 78.3751 45.4572C78.2957 45.5025 78.2186 45.55 78.1436 45.5998C78.0686 45.6495 77.9959 45.7038 77.9253 45.7626C77.868 45.8124 77.8106 45.8667 77.7533 45.9255C77.696 45.9843 77.6431 46.0454 77.5946 46.1087C77.5461 46.1675 77.4998 46.2309 77.4557 46.2987C77.4116 46.3666 77.3719 46.4367 77.3366 46.5091C77.3013 46.5815 77.2682 46.6539 77.2374 46.7263C77.2065 46.8032 77.1778 46.8801 77.1514 46.957C77.1249 47.0339 77.1029 47.1131 77.0852 47.1945C77.0632 47.2714 77.0455 47.3506 77.0323 47.432C77.0191 47.4954 77.0081 47.5587 76.9992 47.622C76.9904 47.6854 76.9838 47.7487 76.9794 47.812C76.9706 47.8754 76.964 47.9387 76.9595 48.0021C76.9551 48.0654 76.9507 48.1287 76.9463 48.1921V53.8789V56.6069ZM107.996 52.2841C107.908 52.2344 107.815 52.1891 107.718 52.1484C107.626 52.1077 107.531 52.076 107.434 52.0534C107.332 52.0263 107.231 52.0082 107.13 51.9991H115.127C115.047 52.0217 114.97 52.0511 114.895 52.0873C114.82 52.119 114.748 52.1552 114.677 52.1959C114.606 52.2412 114.538 52.2887 114.472 52.3384C114.406 52.3882 114.344 52.4425 114.287 52.5013C114.234 52.5556 114.181 52.6144 114.128 52.6777C114.08 52.7365 114.033 52.7999 113.989 52.8677C113.945 52.9311 113.903 52.9989 113.863 53.0713C113.828 53.1392 113.795 53.2093 113.764 53.2817C113.733 53.3586 113.705 53.4355 113.678 53.5124C113.652 53.5893 113.628 53.6662 113.605 53.7432C113.583 53.8201 113.564 53.8992 113.546 53.9807C113.528 54.0621 113.513 54.1435 113.5 54.225C113.491 54.3019 113.482 54.3788 113.473 54.4557C113.46 54.5371 113.451 54.6163 113.447 54.6932C113.442 54.7747 113.438 54.8538 113.433 54.9307C113.429 55.0122 113.427 55.0936 113.427 55.175V59.5114C113.347 59.4345 113.261 59.3644 113.169 59.301C113.081 59.2332 112.99 59.1721 112.898 59.1178C112.801 59.0635 112.701 59.0137 112.6 58.9685C112.499 58.9233 112.395 58.8848 112.289 58.8531C112.188 58.826 112.088 58.8034 111.991 58.7853C111.89 58.7627 111.789 58.7468 111.687 58.7378C111.586 58.7242 111.484 58.7152 111.383 58.7106C111.277 58.7061 111.173 58.7061 111.072 58.7106C110.966 58.7152 110.86 58.7242 110.754 58.7378C110.649 58.7468 110.543 58.7604 110.437 58.7785C110.331 58.7966 110.225 58.817 110.119 58.8396C110.018 58.8622 109.914 58.8893 109.809 58.921C109.379 59.0364 108.955 59.1653 108.532 59.2942C108.109 59.4254 107.687 59.5453 107.268 59.6539C107.171 59.6811 107.072 59.7037 106.971 59.7218C106.869 59.7444 106.766 59.7625 106.66 59.7761C106.559 59.7896 106.457 59.8009 106.356 59.81C106.254 59.819 106.151 59.8258 106.045 59.8304C105.815 59.8394 105.588 59.8394 105.363 59.8304C105.134 59.8213 104.907 59.8009 104.682 59.7693C104.457 59.7421 104.232 59.7037 104.007 59.6539C103.782 59.6041 103.562 59.5476 103.346 59.4843C103.152 59.4254 102.962 59.3553 102.777 59.2739C102.592 59.197 102.411 59.111 102.235 59.016C102.058 58.921 101.886 58.817 101.719 58.7038C101.551 58.5907 101.39 58.4709 101.236 58.3442C101.081 58.2175 100.934 58.0818 100.793 57.937C100.652 57.7968 100.519 57.6475 100.396 57.4891C100.272 57.3353 100.155 57.1747 100.045 57.0073C99.9349 56.8399 99.8335 56.668 99.7409 56.4916C99.6394 56.3061 99.5468 56.1138 99.463 55.9147C99.4234 55.8152 99.3859 55.7179 99.3506 55.6229C99.3109 55.5234 99.2756 55.4216 99.2448 55.3175C99.2095 55.218 99.1786 55.1185 99.1522 55.019C99.1213 54.9149 99.0948 54.8108 99.0728 54.7068C98.9758 54.2001 98.9162 53.6866 98.8942 53.1663C98.8765 52.6461 98.8942 52.128 98.9471 51.6123C99.0044 51.0966 99.0992 50.5876 99.2315 50.0854C99.3594 49.5832 99.5248 49.0946 99.7276 48.6196L99.7409 48.606C99.8026 48.4839 99.871 48.364 99.9459 48.2464C100.021 48.1333 100.098 48.0202 100.177 47.907C100.257 47.7985 100.341 47.6922 100.429 47.5881C100.517 47.4795 100.607 47.3755 100.7 47.2759C100.819 47.1538 100.94 47.0362 101.064 46.9231C101.192 46.81 101.322 46.7014 101.454 46.5973C101.591 46.4933 101.73 46.396 101.871 46.3055C102.012 46.2105 102.157 46.1223 102.307 46.0409C102.457 45.9594 102.612 45.8825 102.77 45.8101C102.925 45.7377 103.084 45.6699 103.247 45.6065C103.405 45.5477 103.569 45.4912 103.736 45.4369C103.899 45.3871 104.065 45.3441 104.232 45.3079C104.409 45.2672 104.585 45.231 104.761 45.1994C104.942 45.1677 105.121 45.1428 105.297 45.1247C105.478 45.1021 105.659 45.0863 105.84 45.0772C106.021 45.0682 106.201 45.0636 106.382 45.0636C106.47 45.0636 106.559 45.0659 106.647 45.0704C106.735 45.0704 106.825 45.0727 106.918 45.0772C107.006 45.0817 107.094 45.0863 107.182 45.0908C107.271 45.0998 107.359 45.1089 107.447 45.1179C107.535 45.127 107.621 45.1383 107.705 45.1519C107.793 45.1609 107.879 45.1722 107.963 45.1858C108.051 45.2039 108.137 45.222 108.221 45.2401C108.305 45.2582 108.389 45.2763 108.472 45.2944C108.812 45.3803 109.167 45.4866 109.537 45.6133C109.63 45.6405 109.723 45.6676 109.815 45.6948C109.908 45.7219 110 45.7468 110.093 45.7694C110.186 45.792 110.28 45.8124 110.377 45.8305C110.47 45.8486 110.565 45.8644 110.662 45.878C110.75 45.8916 110.838 45.9051 110.926 45.9187C111.01 45.9277 111.096 45.9368 111.184 45.9458C111.273 45.9504 111.361 45.9549 111.449 45.9594C111.537 45.9639 111.625 45.9662 111.714 45.9662C111.747 45.9662 111.773 45.9662 111.8 45.9662C111.844 45.9617 111.888 45.9572 111.932 45.9526C111.98 45.9436 112.027 45.9345 112.071 45.9255C112.115 45.9164 112.161 45.9051 112.21 45.8916C112.254 45.8825 112.298 45.8712 112.342 45.8576C112.386 45.8441 112.432 45.8305 112.481 45.8169C112.622 45.7536 112.757 45.6744 112.884 45.5794C113.012 45.4889 113.129 45.3849 113.235 45.2672C113.341 45.1496 113.433 45.0229 113.513 44.8872C113.592 44.7515 113.658 44.609 113.711 44.4597V50.9608C113.347 49.97 112.507 49.2846 111.475 48.606C111.246 48.4567 111.01 48.321 110.768 48.1989C110.525 48.0722 110.278 47.9591 110.027 47.8595C109.775 47.7555 109.52 47.6627 109.26 47.5813C109.004 47.4999 108.741 47.432 108.472 47.3777C108.261 47.328 108.038 47.2827 107.804 47.242C107.747 47.233 107.692 47.2239 107.639 47.2149C107.582 47.2103 107.524 47.2058 107.467 47.2013C107.41 47.1968 107.354 47.1945 107.302 47.1945C107.244 47.1945 107.187 47.1945 107.13 47.1945C107.019 47.199 106.909 47.2103 106.799 47.2284C106.689 47.242 106.581 47.2669 106.475 47.3031C106.369 47.3348 106.265 47.3732 106.164 47.4184C106.067 47.4682 105.972 47.5225 105.879 47.5813C105.796 47.6401 105.716 47.7012 105.641 47.7645C105.562 47.8324 105.489 47.9025 105.423 47.9749C105.352 48.0473 105.288 48.1242 105.231 48.2056C105.169 48.2871 105.114 48.3708 105.066 48.4567C105.013 48.5472 104.964 48.64 104.92 48.735C104.876 48.83 104.834 48.9272 104.795 49.0268C104.759 49.1218 104.726 49.219 104.695 49.3186C104.664 49.4226 104.638 49.5244 104.616 49.6239C104.515 50.0854 104.44 50.5514 104.391 51.0219C104.343 51.4924 104.321 51.9652 104.325 52.4402C104.329 52.9107 104.358 53.3812 104.411 53.8517C104.468 54.3222 104.552 54.7882 104.662 55.2497V55.2361C104.68 55.3402 104.702 55.442 104.728 55.5415C104.759 55.641 104.79 55.7406 104.821 55.8401C104.856 55.9396 104.896 56.0369 104.94 56.1319C104.98 56.2269 105.024 56.3196 105.072 56.4101C105.121 56.5006 105.174 56.5888 105.231 56.6748C105.288 56.7562 105.352 56.8354 105.423 56.9123C105.489 56.9892 105.56 57.0616 105.635 57.1295C105.714 57.1973 105.796 57.2607 105.879 57.3195C105.976 57.3873 106.078 57.4439 106.184 57.4891C106.29 57.5389 106.4 57.5773 106.514 57.6045C106.625 57.6362 106.739 57.6588 106.858 57.6724C106.973 57.6859 107.088 57.6882 107.202 57.6791C107.295 57.6882 107.388 57.6882 107.48 57.6791C107.573 57.6746 107.663 57.661 107.751 57.6384C107.84 57.6203 107.928 57.5932 108.016 57.557C108.1 57.5253 108.181 57.4869 108.261 57.4416C108.314 57.4054 108.364 57.3647 108.413 57.3195C108.461 57.2788 108.505 57.2335 108.545 57.1837C108.585 57.134 108.62 57.0797 108.651 57.0209C108.682 56.9666 108.708 56.91 108.73 56.8512C108.748 56.7879 108.766 56.7268 108.783 56.668C108.797 56.6092 108.808 56.5481 108.816 56.4848C108.825 56.426 108.83 56.3649 108.83 56.3015C108.834 56.2382 108.834 56.1749 108.83 56.1115C108.816 55.8537 108.81 55.6297 108.81 55.4397C108.801 55.0597 108.801 54.6796 108.81 54.2996C108.814 54.2137 108.816 54.1277 108.816 54.0417C108.812 53.9558 108.805 53.8698 108.797 53.7839C108.788 53.6979 108.777 53.612 108.763 53.526C108.746 53.44 108.728 53.3563 108.711 53.2749C108.688 53.198 108.664 53.1234 108.638 53.051C108.607 52.9786 108.572 52.9085 108.532 52.8406C108.492 52.7682 108.448 52.7026 108.4 52.6438C108.351 52.5805 108.298 52.5216 108.241 52.4674C108.161 52.3995 108.08 52.3384 107.996 52.2841Z" fill="black"/>
</g>
<defs>
<clipPath id="clip0_1_254">
<rect width="102" height="53" fill="white" transform="translate(31 7)"/>
</clipPath>
</defs>
</svg>
