<svg width="21" height="20" viewBox="0 0 21 20" fill="none" xmlns="http://www.w3.org/2000/svg">
<path d="M10.5041 18.3356C5.90168 18.3356 2.17072 14.6047 2.17072 10.0022C2.17072 5.3999 5.90168 1.66895 10.5041 1.66895C15.1064 1.66895 18.8374 5.3999 18.8374 10.0022C18.8374 14.6047 15.1064 18.3356 10.5041 18.3356ZM7.58738 11.6689V13.3356H9.67073V15.0022H11.3374V13.3356H12.1707C13.3213 13.3356 14.2541 12.4029 14.2541 11.2522C14.2541 10.1017 13.3213 9.1689 12.1707 9.1689H8.8374C8.60727 9.1689 8.42072 8.9824 8.42072 8.75224C8.42072 8.52215 8.60727 8.33557 8.8374 8.33557H13.4207V6.66895H11.3374V5.00228H9.67073V6.66895H8.8374C7.68679 6.66895 6.75405 7.60168 6.75405 8.75224C6.75405 9.9029 7.68679 10.8356 8.8374 10.8356H12.1707C12.4008 10.8356 12.5874 11.0222 12.5874 11.2522C12.5874 11.4824 12.4008 11.6689 12.1707 11.6689H7.58738Z" fill="white"/>
</svg>
