<svg width="24" height="25" viewBox="0 0 24 25" fill="none" xmlns="http://www.w3.org/2000/svg">
<g clip-path="url(#clip0_66_457)">
<path d="M5 16.5H17.8079C17.4099 14.685 16.3432 13.3528 14.1474 12.4115C13.9274 12.3171 13.8096 12.0713 13.8853 11.8443C13.9521 11.6436 14.1504 11.5171 14.3605 11.541L18.8456 12.0508C19.2427 12.096 19.6285 11.9003 19.8268 11.5534L20.6527 10.1079C20.8612 9.74304 20.8193 9.2867 20.5479 8.96586L15.5 3.0002V0.787109C9.33622 3.33971 5.00008 9.41347 5 16.5ZM4 17.5H19V20.5H20V22.5H3V20.5H4V17.5ZM15 7.5C15 8.05228 14.5523 8.5 14 8.5C13.4477 8.5 13 8.05228 13 7.5C13 6.94772 13.4477 6.5 14 6.5C14.5523 6.5 15 6.94772 15 7.5Z" fill="#D70000"/>
</g>
<defs>
<clipPath id="clip0_66_457">
<rect width="24" height="24" fill="white" transform="translate(0 0.5)"/>
</clipPath>
</defs>
</svg>
