<svg width="131" height="36" viewBox="0 0 131 36" fill="none" xmlns="http://www.w3.org/2000/svg">
<g opacity="0.295">
<path d="M69.8853 1.291L126.273 18.0804L69.6307 34.7945L13.0012 18.0846L69.8887 1.291M69.8887 0.230774L9.4137 18.0846L69.6324 35.8539L129.851 18.0846L69.887 0.230774H69.8887Z" fill="#BD0AFF"/>
<path d="M61.5999 1.291L117.988 18.0804L61.3453 34.7945L4.7158 18.0846L61.6033 1.291M61.6033 0.230774L1.12659 18.0846L61.3453 35.8539L121.564 18.0846L61.6016 0.230774H61.6033Z" fill="#BD0AFF"/>
</g>
<path d="M47.0978 8.49685L43.6726 8.43762L38.4024 14.3379V8.49685H35.5666V22.037H38.4024V18.1159L39.8365 16.5142L43.8494 22.037H47.6829L41.8148 14.3319L47.0978 8.49685ZM29.2637 8.44693C30.0985 8.44693 30.8208 8.56173 31.4307 8.79132C32.0135 9.00525 32.5524 9.32204 33.0212 9.72632V12.4822C32.7022 12.2324 32.3703 11.9991 32.0269 11.7833C31.6652 11.5588 31.2782 11.3771 30.8738 11.2418C30.379 11.087 29.8619 11.0138 29.3431 11.0252C27.8123 11.007 26.3908 11.8091 25.6258 13.1228C24.8572 14.4945 24.8572 16.162 25.6258 17.5338C26.3908 18.8474 27.8123 19.6495 29.3431 19.6314C30.2309 19.6314 30.9763 19.4938 31.5793 19.2185C32.1628 18.9545 32.7132 18.6239 33.2193 18.2335V20.8922C32.7207 21.3137 32.148 21.6407 31.5298 21.8568C30.803 22.1146 30.0355 22.2413 29.2637 22.2308C27.4286 22.2432 25.6594 21.5543 24.324 20.3075C23.6653 19.6914 23.1419 18.9474 22.7865 18.1219C22.4084 17.2412 22.2188 16.2924 22.2296 15.3355C22.2174 14.3765 22.407 13.4255 22.7865 12.5432C23.1437 11.7214 23.6669 10.9807 24.324 10.3669C25.6599 9.12114 27.4291 8.43349 29.2637 8.44693ZM15.89 8.27516L22.2621 22.1081H18.8898L17.8153 19.4444H12.5288L11.4423 22.1081H8.07009L14.4413 8.27516H15.89ZM15.1896 12.9273L13.4727 17.1285H16.8808L15.1896 12.9273ZM4.19388 21.5911C4.19388 23.2168 3.10425 24.345 0.924988 24.9757L2.02174 27.537C2.95253 27.2916 3.83657 26.8972 4.6389 26.3693C5.38636 25.8674 5.99721 25.1905 6.41728 24.3986C6.85177 23.5925 7.06901 22.6158 7.06901 21.4684V8.53662H4.19388V21.5911ZM93.0942 8.44674L93.1553 8.44693C93.9902 8.44693 94.7125 8.56173 95.3224 8.79132C95.8844 8.99761 96.4055 9.29954 96.8623 9.68334L96.9128 9.72632V12.4822C96.5938 12.2324 96.262 11.9991 95.9186 11.7833C95.5569 11.5588 95.1698 11.3771 94.7654 11.2418C94.2707 11.087 93.7535 11.0138 93.2348 11.0252C91.7039 11.007 90.2825 11.8091 89.5174 13.1228C88.7489 14.4945 88.7489 16.162 89.5174 17.5338C90.2825 18.8474 91.7039 19.6495 93.2348 19.6314C94.122 19.6314 94.8674 19.4938 95.471 19.2185C96.0267 18.967 96.5524 18.6553 97.0384 18.2889L97.111 18.2335V20.8922C96.6124 21.3137 96.0396 21.6407 95.4214 21.8568C94.6947 22.1146 93.9272 22.2413 93.1553 22.2308C91.3203 22.2432 89.5511 21.5543 88.2157 20.3075C87.5569 19.6914 87.0335 18.9474 86.6782 18.1219C86.3 17.2412 86.1104 16.2924 86.1213 15.3355C86.109 14.3765 86.2987 13.4255 86.6782 12.5432C87.0354 11.7214 87.5586 10.9807 88.2157 10.3669C89.5219 9.14882 91.2423 8.46433 93.0331 8.44707L93.0942 8.44674ZM67.9429 8.43847C68.8548 8.43164 69.7594 8.60062 70.6062 8.93601C71.4236 9.26121 72.1702 9.73892 72.8057 10.3432C73.4473 10.9545 73.9572 11.6882 74.3047 12.5C74.6753 13.3787 74.8599 14.3233 74.8471 15.2754C74.8579 16.2241 74.6734 17.165 74.3047 18.0406C73.9594 18.8574 73.4493 19.5957 72.8057 20.2102C72.1702 20.8144 71.4236 21.2921 70.6062 21.6173C69.7595 21.953 68.8549 22.1223 67.9429 22.1157C67.0276 22.1217 66.1198 21.9525 65.2694 21.6173C64.448 21.294 63.6976 20.8161 63.0596 20.2102C62.4158 19.5958 61.9057 18.8575 61.5606 18.0406C61.1918 17.165 61.0072 16.2241 61.0182 15.2754C61.0053 14.3232 61.1899 13.3786 61.5606 12.5C61.908 11.6883 62.4179 10.9549 63.0596 10.344C63.6976 9.73802 64.448 9.26017 65.2694 8.93685C66.1198 8.6017 67.0276 8.43248 67.9429 8.43847ZM86.1281 8.51632V10.9752H81.8667V22.0049H78.9916V10.9752H74.7301V8.51632H86.1281ZM69.0035 11.1089C67.9292 10.8209 66.7826 10.9828 65.8323 11.5565C65.2129 11.9289 64.7054 12.4585 64.3622 13.0906C63.6423 14.4584 63.6384 16.0874 64.352 17.4585C64.6936 18.0887 65.2017 18.6152 65.822 18.9815C66.7786 19.5321 67.9174 19.6819 68.9858 19.3975C70.0543 19.1132 70.9641 18.4183 71.5133 17.4669C71.8771 16.795 72.0609 16.0419 72.0472 15.2796C72.0608 14.5134 71.8774 13.7563 71.5142 13.0796C70.9856 12.1094 70.0778 11.3969 69.0035 11.1089ZM99.3984 8.56539H102.26V21.9346H99.3984V8.56539ZM58.4642 9.77708C57.5283 8.94861 56.3181 8.48916 55.0629 8.48585H49.1555V22.0522H52.0135V17.3984L52.0247 17.4212C52.4152 17.646 52.8385 17.8099 53.2794 17.9069C53.8833 18.0455 54.502 18.1108 55.1219 18.1015C55.9694 18.1085 56.8052 17.9049 57.5528 17.5092C58.2867 17.1246 58.9054 16.5552 59.3466 15.8584C59.7976 15.1527 60.0231 14.3274 60.0231 13.3825C60.0363 12.6713 59.8922 11.9657 59.6011 11.3154C59.334 10.7301 58.9468 10.2062 58.4642 9.77708ZM56.4023 14.9539C55.9541 15.3668 55.3516 15.5732 54.5948 15.5732C53.7133 15.5691 52.8426 15.3802 52.04 15.019L52.0298 15.0452V11.0252H54.5385C54.9718 11.021 55.4009 11.1093 55.7967 11.2841C56.1684 11.4462 56.4889 11.705 56.7243 12.0329C56.9578 12.3595 57.0745 12.7753 57.0745 13.2802C57.0739 13.9825 56.8498 14.5404 56.4023 14.9539ZM126.83 8.54762L123.434 14.315L120.058 8.54762H116.764L121.999 17.0379V22.0599H124.87V16.8992L130.125 8.54762H126.83ZM108.674 8.51632H104.412V10.9752H108.674V22.0049H111.549V10.9752H115.81V8.51632H111.549H108.674Z" fill="#262626"/>
<path d="M51.0902 27.4532C50.5976 27.4569 50.1225 27.2723 49.7637 26.9379C49.5865 26.7725 49.4458 26.5725 49.3502 26.3507C49.1509 25.8704 49.1509 25.3316 49.3502 24.8513C49.4463 24.6305 49.587 24.4315 49.7637 24.2666C50.1229 23.9331 50.5979 23.7495 51.0902 23.7538C51.2881 23.7495 51.4852 23.7807 51.6719 23.8461C51.8286 23.9044 51.9733 23.9904 52.099 24.0999V24.8403C52.0135 24.7732 51.9245 24.7105 51.8325 24.6525C51.7355 24.5922 51.6317 24.5433 51.5232 24.5069C51.3904 24.4653 51.2516 24.4456 51.1124 24.4485C50.7012 24.4437 50.3193 24.6592 50.1139 25.0121C49.9074 25.3805 49.9074 25.8283 50.1139 26.1967C50.3193 26.5496 50.7012 26.7651 51.1124 26.7602C51.3174 26.7662 51.5213 26.7284 51.7103 26.6494C51.8671 26.5787 52.015 26.4901 52.1511 26.3854V27.0995C52.0172 27.2127 51.8634 27.3005 51.6975 27.3585C51.5024 27.4256 51.2967 27.4577 51.0902 27.4532ZM54.7255 27.3737L56.3484 23.8503H56.7174L58.3404 27.3737H57.4811L56.5415 25.0349L55.5874 27.3737H54.7255ZM55.537 26.6968V26.1045H57.5186V26.6968H55.537ZM62.0748 27.4389C61.8688 27.4395 61.6644 27.4028 61.4717 27.3305C61.2947 27.2668 61.1262 27.1815 60.9703 27.0767V26.3769C61.1345 26.4941 61.3131 26.5902 61.5016 26.6629C61.6978 26.7404 61.9071 26.78 62.1183 26.7797C62.2494 26.7847 62.3789 26.7495 62.489 26.679C62.5831 26.619 62.6388 26.5148 62.636 26.404C62.6361 26.3445 62.6143 26.287 62.5745 26.2424C62.5302 26.1921 62.478 26.1492 62.4199 26.1155C62.3566 26.0781 62.2896 26.0472 62.22 26.0232L61.6699 25.8117C61.5102 25.7564 61.3633 25.6701 61.2377 25.5579C61.1394 25.4667 61.0652 25.3531 61.0216 25.227C60.98 25.1017 60.9593 24.9705 60.9601 24.8386C60.9551 24.6348 61.0178 24.4351 61.1386 24.27C61.2601 24.1076 61.4219 23.979 61.6084 23.8968C61.8035 23.8086 62.0157 23.7635 62.2302 23.7649C62.4241 23.7624 62.617 23.791 62.8017 23.8495C62.9519 23.8963 63.0954 23.962 63.2287 24.0449V24.743C63.0928 24.6583 62.9499 24.585 62.8017 24.5239C62.6394 24.4569 62.465 24.4235 62.2892 24.4257C62.1982 24.4254 62.1079 24.4415 62.0227 24.4731C61.9422 24.5016 61.8698 24.5489 61.8117 24.611C61.7545 24.673 61.7239 24.7546 61.7263 24.8386C61.7229 24.9495 61.7826 25.0528 61.8809 25.106C62.0028 25.1771 62.1295 25.2398 62.2601 25.2939L62.6872 25.4741C62.9003 25.5529 63.0915 25.6808 63.245 25.8472C63.3656 25.9942 63.429 26.1791 63.4235 26.3685C63.4268 26.5696 63.3618 26.7659 63.239 26.9261C63.1102 27.0913 62.9412 27.2214 62.7479 27.3043C62.5355 27.3953 62.3061 27.4406 62.0748 27.4372V27.4389ZM74.7865 27.4228L72.6673 25.2862V27.3923H71.925V23.8249H72.1924L74.3116 25.9936V23.852H75.0538V27.4219L74.7865 27.4228ZM79.9277 27.4549C79.68 27.4567 79.4344 27.411 79.2042 27.3204C78.982 27.2329 78.7789 27.1036 78.6063 26.9396C78.4321 26.7733 78.294 26.5735 78.2006 26.3524C78.0048 25.8714 78.0048 25.334 78.2006 24.853C78.2945 24.6329 78.4325 24.434 78.6063 24.2683C78.7789 24.1043 78.982 23.975 79.2042 23.8875C79.4344 23.797 79.68 23.7513 79.9277 23.753C80.1745 23.7511 80.4194 23.7968 80.6486 23.8875C80.8708 23.9752 81.0738 24.1045 81.2465 24.2683C81.4203 24.434 81.5583 24.6329 81.6523 24.853C81.8481 25.334 81.8481 25.8714 81.6523 26.3524C81.5588 26.5735 81.4207 26.7733 81.2465 26.9396C81.0738 27.1034 80.8708 27.2327 80.6486 27.3204C80.4193 27.4106 80.1744 27.4557 79.9277 27.4532V27.4549ZM79.9277 26.7568C80.3302 26.7641 80.7031 26.5479 80.8938 26.1967C80.9922 26.0147 81.0419 25.8108 81.0381 25.6044C81.0413 25.398 80.9916 25.1943 80.8938 25.0121C80.7464 24.754 80.5009 24.5651 80.212 24.4877C79.923 24.4102 79.6149 24.4507 79.3563 24.6C79.1885 24.7008 79.0511 24.8443 78.9582 25.0155C78.7633 25.3867 78.7633 25.8288 78.9582 26.2001C79.0506 26.371 79.1882 26.5137 79.3563 26.613C79.53 26.7113 79.7277 26.7605 79.9277 26.7552V26.7568ZM67.8583 23.8385H67.1536V27.35H67.8583V23.8385Z" fill="#B3B3B3"/>
</svg>
