<svg width="24" height="25" viewBox="0 0 24 25" fill="none" xmlns="http://www.w3.org/2000/svg">
<path d="M12 2.5C17.5228 2.5 22 6.97715 22 12.5C22 18.0228 17.5228 22.5 12 22.5C6.47715 22.5 2 18.0228 2 12.5C2 6.97715 6.47715 2.5 12 2.5ZM16.0043 13.3777C15.6589 12.8533 15.4097 12.4746 14.4622 12.6248C12.6717 12.909 12.4732 13.2224 12.3877 13.7375L12.3636 13.8943L12.3393 14.0597C12.2416 14.7428 12.2453 15.0012 12.5589 15.3308C13.8241 16.6582 14.582 17.615 14.8116 18.1746C14.9237 18.4484 15.2119 19.2751 15.0136 20.0927C16.2372 19.6066 17.3156 18.8332 18.1653 17.8559C18.2755 17.4821 18.3551 17.0166 18.3551 16.4518V16.3472C18.3551 15.4247 18.3551 15.004 17.7031 14.6314C17.428 14.4751 17.2227 14.381 17.0582 14.3064C16.691 14.1394 16.4479 14.0297 16.1198 13.5499C16.0807 13.4928 16.0425 13.4358 16.0043 13.3777ZM12 4.33333C9.68259 4.33333 7.59062 5.29858 6.1042 6.84896C6.28116 6.97186 6.43537 7.14453 6.54129 7.38256C6.74529 7.84029 6.74529 8.3112 6.74529 8.72764C6.74488 9.05621 6.74442 9.3672 6.84992 9.59302C6.99443 9.90134 7.6164 10.0323 8.16548 10.1474C8.36166 10.1887 8.56395 10.2308 8.74797 10.2818C9.25405 10.4223 9.64554 10.8765 9.95938 11.2412C10.0896 11.3931 10.2819 11.6163 10.3783 11.6717C10.4286 11.6356 10.59 11.4608 10.6699 11.1735C10.7307 10.9547 10.7134 10.7597 10.6239 10.6543C10.0648 9.99445 10.0952 8.7232 10.268 8.25495C10.5402 7.51606 11.3905 7.57058 12.012 7.61097C12.2438 7.62589 12.4626 7.64023 12.6257 7.61976C13.2482 7.54166 13.4396 6.59538 13.575 6.41C13.8671 6.00981 14.7607 5.4071 15.3158 5.03454C14.3025 4.58382 13.1805 4.33333 12 4.33333Z" fill="#D70000"/>
</svg>
