<svg width="17" height="16" viewBox="0 0 17 16" fill="none" xmlns="http://www.w3.org/2000/svg">
<path d="M10.3414 6.16694H14.8749C15.6573 6.16694 16.2916 6.8012 16.2916 7.58359V9.0742C16.2916 9.25922 16.2553 9.44247 16.1849 9.6136L13.993 14.9367C13.8837 15.2021 13.6251 15.3753 13.338 15.3753H1.41659C1.02539 15.3753 0.708252 15.0581 0.708252 14.6669V7.58359C0.708252 7.1924 1.02539 6.87527 1.41659 6.87527H3.88289C4.11305 6.87527 4.32885 6.76345 4.46158 6.57542L8.3244 1.10308C8.42533 0.960093 8.61559 0.912275 8.77213 0.99055L10.0571 1.63303C10.802 2.00549 11.1867 2.84669 10.9813 3.65379L10.3414 6.16694ZM4.95825 7.99973V13.9586H12.8637L14.8749 9.0742V7.58359H10.3414C9.41728 7.58359 8.74061 6.71303 8.96855 5.81744L9.60839 3.30429C9.64948 3.14287 9.57255 2.97462 9.42352 2.90014L8.95524 2.66598L5.61895 7.39239C5.44194 7.64316 5.21567 7.84872 4.95825 7.99973ZM3.54159 8.29192H2.12492V13.9586H3.54159V8.29192Z" fill="black"/>
</svg>
