<svg width="30" height="30" viewBox="0 0 30 30" fill="none" xmlns="http://www.w3.org/2000/svg">
<g clip-path="url(#clip0_107_263)">
<path d="M25.9091 0H4.09091C1.83156 0 0 1.83156 0 4.09091V25.9091C0 28.1684 1.83156 30 4.09091 30H25.9091C28.1684 30 30 28.1684 30 25.9091V4.09091C30 1.83156 28.1684 0 25.9091 0Z" fill="white"/>
<path d="M10.8068 8.18182C10.8068 8.68751 10.6568 9.18184 10.3759 9.60231C10.0949 10.0228 9.69558 10.3505 9.22839 10.544C8.76119 10.7375 8.2471 10.7882 7.75112 10.6895C7.25515 10.5909 6.79957 10.3473 6.44199 9.98976C6.08441 9.63218 5.8409 9.1766 5.74225 8.68063C5.64359 8.18465 5.69422 7.67056 5.88774 7.20337C6.08126 6.73617 6.40898 6.33685 6.82944 6.0559C7.24991 5.77495 7.74424 5.625 8.24993 5.625C8.92805 5.625 9.57838 5.89438 10.0579 6.37387C10.5374 6.85337 10.8068 7.50371 10.8068 8.18182Z" fill="#D70000"/>
<path d="M10.2272 12.4437V23.7397C10.2277 23.823 10.2117 23.9056 10.1801 23.9827C10.1485 24.0599 10.102 24.13 10.0432 24.1891C9.98446 24.2481 9.91459 24.295 9.83764 24.327C9.76069 24.359 9.67818 24.3755 9.59485 24.3755H6.89996C6.81663 24.3757 6.73407 24.3595 6.65704 24.3277C6.58001 24.2959 6.51002 24.2492 6.45109 24.1903C6.39217 24.1313 6.34547 24.0613 6.31368 23.9843C6.28189 23.9073 6.26565 23.8247 6.26587 23.7414V12.4437C6.26587 12.2755 6.33268 12.1142 6.45159 11.9953C6.57051 11.8764 6.73179 11.8096 6.89996 11.8096H9.59485C9.76273 11.81 9.92357 11.877 10.0421 11.9959C10.1607 12.1148 10.2272 12.2758 10.2272 12.4437Z" fill="#D70000"/>
<path d="M24.3137 18.3243V23.7925C24.3139 23.8691 24.299 23.945 24.2698 24.0159C24.2405 24.0867 24.1976 24.1511 24.1434 24.2052C24.0893 24.2594 24.0249 24.3023 23.9541 24.3316C23.8832 24.3608 23.8073 24.3757 23.7307 24.3755H20.833C20.7564 24.3757 20.6805 24.3608 20.6096 24.3316C20.5388 24.3023 20.4745 24.2594 20.4203 24.2052C20.3661 24.1511 20.3232 24.0867 20.2939 24.0159C20.2647 23.945 20.2498 23.8691 20.25 23.7925V18.4931C20.25 17.7022 20.4819 15.0295 18.1824 15.0295C16.4012 15.0295 16.0381 16.8584 15.9665 17.68V23.7925C15.9665 23.9457 15.9063 24.0927 15.7988 24.2018C15.6913 24.3108 15.5452 24.3732 15.3921 24.3755H12.5932C12.5167 24.3755 12.441 24.3604 12.3704 24.3311C12.2998 24.3018 12.2356 24.2588 12.1816 24.2046C12.1276 24.1505 12.0848 24.0862 12.0557 24.0155C12.0266 23.9448 12.0117 23.869 12.012 23.7925V12.3942C12.0117 12.3178 12.0266 12.242 12.0557 12.1713C12.0848 12.1006 12.1276 12.0363 12.1816 11.9821C12.2356 11.928 12.2998 11.885 12.3704 11.8557C12.441 11.8264 12.5167 11.8113 12.5932 11.8113H15.3921C15.5467 11.8113 15.695 11.8727 15.8043 11.982C15.9136 12.0913 15.975 12.2396 15.975 12.3942V13.3795C16.6364 12.3874 17.6165 11.6221 19.708 11.6221C24.3409 11.6221 24.3137 15.9482 24.3137 18.3243Z" fill="#D70000"/>
</g>
<defs>
<clipPath id="clip0_107_263">
<rect width="30" height="30" fill="white"/>
</clipPath>
</defs>
</svg>
