<svg width="15" height="15" viewBox="0 0 15 15" fill="none" xmlns="http://www.w3.org/2000/svg">
<g clip-path="url(#clip0_61_104)">
<path d="M8.11491 4.41771C7.77585 4.75604 7.22633 4.75604 6.88727 4.41771C6.54832 4.07938 6.54832 3.5308 6.88727 3.19247C7.22633 2.85414 7.77585 2.85414 8.11491 3.19247C8.45387 3.5308 8.45387 4.07938 8.11491 4.41771Z" fill="#D70000"/>
<path d="M9.30073 5.73064C9.19498 5.73064 9.08923 5.69028 9.00871 5.60945C8.84768 5.44821 8.848 5.18695 9.00923 5.02603C9.33599 4.6999 9.51589 4.26636 9.51589 3.80527C9.51589 3.34419 9.33599 2.91064 9.00923 2.58452C8.848 2.42349 8.84768 2.16234 9.00871 2.00099C9.16964 1.83976 9.43089 1.83944 9.59213 2.00047C10.0751 2.48252 10.3411 3.1234 10.3411 3.80527C10.3411 4.48704 10.0751 5.12803 9.59213 5.61007C9.51162 5.69048 9.40618 5.73064 9.30073 5.73064Z" fill="#D70000"/>
<path d="M10.2339 6.94521C10.1282 6.94521 10.0224 6.90485 9.94191 6.82412C9.78088 6.66278 9.78119 6.40163 9.94243 6.2406C10.5943 5.59002 10.9533 4.72511 10.9533 3.80514C10.9533 2.88516 10.5943 2.02026 9.94243 1.36967C9.78119 1.20864 9.78088 0.947492 9.94191 0.78615C10.1029 0.624912 10.3641 0.624599 10.5253 0.785629C11.3334 1.59213 11.7785 2.66448 11.7784 3.80514C11.7784 4.9458 11.3334 6.01825 10.5253 6.82475C10.4448 6.90506 10.3394 6.94521 10.2339 6.94521Z" fill="#D70000"/>
<path d="M5.69937 5.73043C5.59393 5.73043 5.48849 5.69028 5.40787 5.60987C4.92488 5.12782 4.65894 4.48684 4.65894 3.80507C4.65894 3.1232 4.92488 2.48231 5.40787 2.00027C5.56911 1.83924 5.83036 1.83945 5.99129 2.00079C6.15232 2.16203 6.152 2.42328 5.99076 2.58431C5.66401 2.91044 5.48411 3.34399 5.48411 3.80507C5.48411 4.26615 5.66401 4.6997 5.99076 5.02582C6.152 5.18675 6.15232 5.448 5.99129 5.60924C5.91077 5.68997 5.80502 5.73043 5.69937 5.73043Z" fill="#D70000"/>
<path d="M4.76615 6.94526C4.6606 6.94526 4.55516 6.90511 4.47465 6.8247C3.66658 6.01819 3.22156 4.94585 3.22156 3.80519C3.22156 2.66443 3.66658 1.59208 4.47465 0.785577C4.63588 0.624652 4.89714 0.62486 5.05806 0.786202C5.21909 0.94744 5.21878 1.20859 5.05754 1.36962C4.40571 2.0202 4.04662 2.88511 4.04662 3.80508C4.04662 4.72506 4.40571 5.59007 5.05754 6.24065C5.21878 6.40168 5.21909 6.66283 5.05806 6.82418C4.97755 6.9049 4.8718 6.94526 4.76615 6.94526Z" fill="#D70000"/>
<path d="M12.9378 7.65845H2.06233C1.52929 7.65845 1.0972 8.09054 1.0972 8.62348V13.3698C1.0972 13.9028 1.52929 14.3349 2.06233 14.3349H12.9376C13.4707 14.3349 13.9028 13.9028 13.9028 13.3698V8.62348C13.9028 8.09054 13.4707 7.65845 12.9378 7.65845ZM4.27096 13.0966H2.75088C2.5231 13.0966 2.3384 12.9119 2.3384 12.684V9.30931C2.3384 9.08153 2.5231 8.89673 2.75088 8.89673C2.97876 8.89673 3.16346 9.08143 3.16346 9.30931V12.2715H4.27096C4.49884 12.2715 4.68354 12.4562 4.68354 12.684C4.68354 12.9119 4.49884 13.0966 4.27096 13.0966ZM5.96176 12.684C5.96176 12.9119 5.77706 13.0966 5.54918 13.0966C5.3213 13.0966 5.13659 12.9119 5.13659 12.684V9.30931C5.13659 9.08153 5.3213 8.89673 5.54918 8.89673C5.77706 8.89673 5.96176 9.08143 5.96176 9.30931V12.684ZM9.43307 9.42862L8.41423 12.8033C8.41412 12.8036 8.41402 12.8039 8.41392 12.8042C8.30326 13.1818 7.73914 13.1726 7.62462 12.8042C7.62452 12.8039 7.62441 12.8036 7.62431 12.8033L6.60546 9.42862C6.53966 9.21044 6.66303 8.98026 6.88122 8.91435C7.09919 8.84854 7.32958 8.97192 7.39538 9.1901L8.01927 11.2565L8.64315 9.1901C8.70907 8.97192 8.93924 8.84844 9.15742 8.91435C9.3755 8.98026 9.49899 9.21044 9.43307 9.42862ZM11.9713 10.3716C12.1991 10.3716 12.3839 10.5563 12.3839 10.7842C12.3839 11.012 12.1991 11.1968 11.9713 11.1968H10.8005V12.2715H12.1935C12.4214 12.2715 12.6061 12.4562 12.6061 12.684C12.6061 12.9119 12.4214 13.0966 12.1935 13.0966H10.3879C10.16 13.0966 9.9753 12.9119 9.9753 12.684V9.30931C9.9753 9.08153 10.16 8.89673 10.3879 8.89673H12.2491C12.4769 8.89673 12.6617 9.08143 12.6617 9.30931C12.6617 9.53719 12.4769 9.7219 12.2491 9.7219H10.8004V10.3716H11.9713Z" fill="#D70000"/>
</g>
<defs>
<clipPath id="clip0_61_104">
<rect width="13.67" height="13.67" fill="white" transform="translate(0.669983 0.665039)"/>
</clipPath>
</defs>
</svg>
