<svg width="16" height="15" viewBox="0 0 16 15" fill="none" xmlns="http://www.w3.org/2000/svg">
<g clip-path="url(#clip0_61_71)">
<path d="M6.36927 7.06449C6.51289 6.85256 6.69555 6.66991 6.90748 6.52628L5.14249 2.26465C3.82258 2.9121 2.75509 3.9796 2.10764 5.2995L6.36927 7.06449Z" fill="#D70000"/>
<path d="M14.2615 10.3345C14.7404 8.94332 14.7404 7.43195 14.2615 6.04077L9.99986 7.80576C10.0485 8.05771 10.0485 8.31664 9.99986 8.5686L14.2615 10.3345Z" fill="#D70000"/>
<path d="M9.15382 6.52628C9.36575 6.66991 9.54841 6.85256 9.69203 7.06449L13.9537 5.2995C13.3062 3.9796 12.2387 2.9121 10.9188 2.26465L9.15382 6.52628Z" fill="#D70000"/>
<path d="M6.90748 9.849C6.69555 9.70537 6.51289 9.52272 6.36927 9.31079L2.10764 11.0758C2.75509 12.3957 3.82258 13.4632 5.14249 14.1106L6.90748 9.849Z" fill="#D70000"/>
<path d="M6.06143 8.56908C6.01284 8.31713 6.01284 8.0582 6.06143 7.80624L1.7998 6.04126C1.32088 7.43244 1.32088 8.94381 1.7998 10.335L6.06143 8.56908Z" fill="#D70000"/>
<path d="M9.69203 9.31079C9.54841 9.52272 9.36575 9.70537 9.15382 9.849L10.9188 14.1106C12.2387 13.4632 13.3062 12.3957 13.9537 11.0758L9.69203 9.31079Z" fill="#D70000"/>
<path d="M8.41207 10.157C8.16011 10.2056 7.90119 10.2056 7.64923 10.157L5.88425 14.4186C7.27543 14.8975 8.78679 14.8975 10.178 14.4186L8.41207 10.157Z" fill="#D70000"/>
<path d="M8.03065 6.98438C7.79264 6.98438 7.55998 7.05495 7.36208 7.18718C7.16418 7.31942 7.00994 7.50736 6.91886 7.72725C6.82778 7.94715 6.80395 8.18911 6.85038 8.42254C6.89681 8.65598 7.01142 8.87041 7.17972 9.0387C7.34802 9.207 7.56245 9.32162 7.79588 9.36805C8.02932 9.41448 8.27128 9.39065 8.49117 9.29957C8.71107 9.20849 8.89901 9.05424 9.03124 8.85635C9.16347 8.65845 9.23405 8.42578 9.23405 8.18777C9.23369 7.86872 9.10679 7.56285 8.88118 7.33724C8.65558 7.11164 8.3497 6.98474 8.03065 6.98438ZM8.03065 8.58891C7.95132 8.58891 7.87376 8.56538 7.8078 8.5213C7.74183 8.47723 7.69042 8.41458 7.66006 8.34128C7.62969 8.26798 7.62175 8.18733 7.63723 8.10952C7.65271 8.0317 7.69091 7.96023 7.74701 7.90413C7.80311 7.84803 7.87459 7.80983 7.9524 7.79435C8.03021 7.77887 8.11086 7.78681 8.18416 7.81717C8.25746 7.84754 8.32011 7.89895 8.36418 7.96492C8.40826 8.03088 8.43179 8.10844 8.43179 8.18777C8.43173 8.29414 8.38944 8.39614 8.31423 8.47135C8.23902 8.54656 8.13702 8.58885 8.03065 8.58891Z" fill="#D70000"/>
<path d="M6.9155 0.777809L7.66046 2.56572C7.69087 2.63885 7.74225 2.70134 7.80814 2.7453C7.87402 2.78926 7.95145 2.81272 8.03065 2.81272C8.10985 2.81272 8.18728 2.78926 8.25316 2.7453C8.31905 2.70134 8.37043 2.63885 8.40084 2.56572L9.1458 0.777809C9.17125 0.716862 9.18125 0.65057 9.17491 0.584827C9.16857 0.519084 9.14608 0.455925 9.10945 0.400966C9.07282 0.346007 9.02318 0.30095 8.96494 0.2698C8.90669 0.238649 8.84166 0.222371 8.77561 0.222412H7.28569C7.21964 0.222371 7.15461 0.238649 7.09636 0.2698C7.03812 0.30095 6.98848 0.346007 6.95185 0.400966C6.91522 0.455925 6.89273 0.519084 6.88639 0.584827C6.88005 0.65057 6.89005 0.716862 6.9155 0.777809Z" fill="#D70000"/>
<path d="M9.59507 1.7854L9.14145 2.87419C9.05006 3.09347 8.89581 3.2808 8.69814 3.41257C8.50047 3.54434 8.26822 3.61466 8.03065 3.61466C7.79309 3.61466 7.56084 3.54434 7.36316 3.41257C7.16549 3.2808 7.01125 3.09347 6.91986 2.87419L6.46623 1.7854C6.26849 1.83384 6.07435 1.89099 5.88379 1.95686L7.64877 6.21849C7.90073 6.1699 8.15965 6.1699 8.41161 6.21849L10.1766 1.95686C9.98665 1.89115 9.79281 1.83399 9.59507 1.7854Z" fill="#D70000"/>
</g>
<defs>
<clipPath id="clip0_61_71">
<rect width="14.67" height="14.67" fill="white" transform="translate(0.695648 0.165039)"/>
</clipPath>
</defs>
</svg>
