<svg width="60" height="60" viewBox="0 0 60 60" fill="none" xmlns="http://www.w3.org/2000/svg">
<path d="M11.7835 17.8203L11.167 19.2345C10.7159 20.2698 9.28392 20.2698 8.8328 19.2345L8.2164 17.8203C7.11765 15.2987 5.13862 13.291 2.66917 12.1927L0.770117 11.348C-0.256706 10.8913 -0.256706 9.39702 0.770117 8.9403L2.563 8.14285C5.09595 7.01627 7.11042 4.93432 8.1903 2.32707L8.8233 0.798834C9.26445 -0.266278 10.7354 -0.266278 11.1766 0.798834L11.8095 2.32707C12.8894 4.93432 14.9039 7.01627 17.437 8.14285L19.2297 8.9403C20.2568 9.39702 20.2568 10.8913 19.2297 11.348L17.3307 12.1927C14.8613 13.291 12.8822 15.2987 11.7835 17.8203ZM7.65902 54.033C10.2213 38.555 15.7776 4.99145 52.5 4.99145C48.7605 12.4914 46.25 16.2414 43.75 18.7414L41.25 21.2415L45 23.7415C42.5 31.2415 35 39.9915 25 41.2415C18.3286 42.0752 14.1605 46.6587 12.4956 54.9915H7.5C7.55185 54.6805 7.60475 54.3607 7.65902 54.033Z" fill="white"/>
</svg>
