<svg width="21" height="20" viewBox="0 0 21 20" fill="none" xmlns="http://www.w3.org/2000/svg">
<path d="M9.62607 13.2444C8.83966 13.8213 7.8392 14.1667 6.74999 14.1667C4.21868 14.1667 2.16666 12.3012 2.16666 10C2.16666 7.04328 5.10404 4.92582 7.70336 3.05205C8.76704 2.28528 9.77407 1.55931 10.5001 0.833344C11.2261 1.55929 12.2331 2.28524 13.2967 3.05199C15.896 4.92578 18.8333 7.04326 18.8333 10C18.8333 12.3012 16.7813 14.1667 14.25 14.1667C13.1608 14.1667 12.1603 13.8213 11.3739 13.2444C11.6108 14.6158 12.2148 15.5942 12.8693 16.6544C12.9708 16.8189 13.0737 16.9855 13.1765 17.1558C13.4967 17.686 13.1044 18.3333 12.485 18.3333H8.51501C7.89553 18.3333 7.50324 17.686 7.82349 17.1558C7.92631 16.9855 8.02911 16.8189 8.1307 16.6544C8.78519 15.5942 9.38916 14.6158 9.62607 13.2444Z" fill="white"/>
</svg>
