<svg width="24" height="25" viewBox="0 0 24 25" fill="none" xmlns="http://www.w3.org/2000/svg">
<path d="M17.5049 21.5029C15.5719 21.5029 14.0049 19.9359 14.0049 18.0029C14.0049 16.0699 15.5719 14.5029 17.5049 14.5029C19.4379 14.5029 21.0049 16.0699 21.0049 18.0029C21.0049 19.9359 19.4379 21.5029 17.5049 21.5029ZM6.50488 10.5029C4.57189 10.5029 3.00488 8.93592 3.00488 7.00293C3.00488 5.06993 4.57189 3.50293 6.50488 3.50293C8.43788 3.50293 10.0049 5.06993 10.0049 7.00293C10.0049 8.93592 8.43788 10.5029 6.50488 10.5029ZM19.076 4.01765L20.4902 5.43186L4.93382 20.9882L3.5196 19.574L19.076 4.01765Z" fill="#D70000"/>
</svg>
