<svg width="24" height="24" viewBox="0 0 24 24" fill="none" xmlns="http://www.w3.org/2000/svg">
<rect width="24" height="24" rx="12" fill="#D70000"/>
<path d="M7.36026 16.6392C6.61784 16.6392 5.95662 16.5116 5.3766 16.2564C4.79989 15.9979 4.34416 15.6432 4.00941 15.1925C3.67797 14.7384 3.50728 14.2147 3.49734 13.6214H5.66495C5.67821 13.87 5.75941 14.0888 5.90856 14.2777C6.06102 14.4633 6.2632 14.6075 6.51509 14.7102C6.76699 14.813 7.05037 14.8643 7.36523 14.8643C7.69336 14.8643 7.98337 14.8063 8.23526 14.6903C8.48716 14.5743 8.68436 14.4136 8.82688 14.2081C8.9694 14.0026 9.04066 13.7656 9.04066 13.4972C9.04066 13.2254 8.96443 12.9851 8.81197 12.7763C8.66282 12.5642 8.44738 12.3984 8.16566 12.2791C7.88725 12.1598 7.55581 12.1001 7.17134 12.1001H6.22177V10.5192H7.17134C7.49615 10.5192 7.78285 10.4628 8.03143 10.3501C8.28332 10.2375 8.47887 10.0817 8.61808 9.88281C8.75728 9.68063 8.82688 9.44531 8.82688 9.17685C8.82688 8.92164 8.76557 8.69792 8.64293 8.50568C8.52362 8.31013 8.35458 8.15767 8.13583 8.0483C7.9204 7.93892 7.6685 7.88423 7.38015 7.88423C7.08848 7.88423 6.82167 7.93726 6.57972 8.04332C6.33777 8.14607 6.14388 8.29356 5.99805 8.4858C5.85221 8.67803 5.77433 8.90341 5.76438 9.16193H3.70117C3.71112 8.57528 3.87849 8.05824 4.2033 7.6108C4.52811 7.16335 4.96561 6.81368 5.5158 6.56179C6.06931 6.30658 6.69407 6.17898 7.39009 6.17898C8.09274 6.17898 8.70756 6.30658 9.23455 6.56179C9.76154 6.817 10.1709 7.16169 10.4625 7.59588C10.7575 8.02675 10.9034 8.51065 10.9 9.04758C10.9034 9.61766 10.726 10.0933 10.3681 10.4744C10.0134 10.8556 9.55108 11.0975 8.981 11.2003V11.2798C9.73005 11.3759 10.3001 11.6361 10.6912 12.0604C11.0856 12.4813 11.2812 13.0083 11.2779 13.6413C11.2812 14.2214 11.1138 14.7367 10.7757 15.1875C10.441 15.6383 9.97863 15.9929 9.38867 16.2514C8.79871 16.5099 8.12257 16.6392 7.36026 16.6392ZM16.5888 16.6392C15.8464 16.6392 15.1851 16.5116 14.6051 16.2564C14.0284 15.9979 13.5727 15.6432 13.2379 15.1925C12.9065 14.7384 12.7358 14.2147 12.7259 13.6214H14.8935C14.9067 13.87 14.9879 14.0888 15.1371 14.2777C15.2895 14.4633 15.4917 14.6075 15.7436 14.7102C15.9955 14.813 16.2789 14.8643 16.5938 14.8643C16.9219 14.8643 17.2119 14.8063 17.4638 14.6903C17.7157 14.5743 17.9129 14.4136 18.0554 14.2081C18.1979 14.0026 18.2692 13.7656 18.2692 13.4972C18.2692 13.2254 18.1929 12.9851 18.0405 12.7763C17.8913 12.5642 17.6759 12.3984 17.3942 12.2791C17.1158 12.1598 16.7843 12.1001 16.3999 12.1001H15.4503V10.5192H16.3999C16.7247 10.5192 17.0114 10.4628 17.2599 10.3501C17.5118 10.2375 17.7074 10.0817 17.8466 9.88281C17.9858 9.68063 18.0554 9.44531 18.0554 9.17685C18.0554 8.92164 17.9941 8.69792 17.8714 8.50568C17.7521 8.31013 17.5831 8.15767 17.3643 8.0483C17.1489 7.93892 16.897 7.88423 16.6087 7.88423C16.317 7.88423 16.0502 7.93726 15.8082 8.04332C15.5663 8.14607 15.3724 8.29356 15.2266 8.4858C15.0807 8.67803 15.0028 8.90341 14.9929 9.16193H12.9297C12.9396 8.57528 13.107 8.05824 13.4318 7.6108C13.7566 7.16335 14.1941 6.81368 14.7443 6.56179C15.2978 6.30658 15.9226 6.17898 16.6186 6.17898C17.3213 6.17898 17.9361 6.30658 18.4631 6.56179C18.9901 6.817 19.3994 7.16169 19.6911 7.59588C19.986 8.02675 20.1319 8.51065 20.1286 9.04758C20.1319 9.61766 19.9545 10.0933 19.5966 10.4744C19.242 10.8556 18.7796 11.0975 18.2095 11.2003V11.2798C18.9586 11.3759 19.5286 11.6361 19.9197 12.0604C20.3142 12.4813 20.5097 13.0083 20.5064 13.6413C20.5097 14.2214 20.3423 14.7367 20.0043 15.1875C19.6695 15.6383 19.2071 15.9929 18.6172 16.2514C18.0272 16.5099 17.3511 16.6392 16.5888 16.6392Z" fill="white"/>
</svg>
