<svg width="157" height="20" viewBox="0 0 157 20" fill="none" xmlns="http://www.w3.org/2000/svg">
<path d="M10.595 15.4495L5.02914 18.5651L6.27224 12.3088L1.58924 7.97814L7.9234 7.22712L10.595 1.43506L13.2666 7.22712L19.6007 7.97814L14.9178 12.3088L16.1609 18.5651L10.595 15.4495Z" fill="#FFA600"/>
<path d="M36.4976 15.4495L30.9317 18.5651L32.1748 12.3088L27.4918 7.97814L33.8259 7.22712L36.4976 1.43506L39.1692 7.22712L45.5033 7.97814L40.8204 12.3088L42.0634 18.5651L36.4976 15.4495Z" fill="#FFA600"/>
<path d="M62.4001 15.4495L56.8342 18.5651L58.0773 12.3088L53.3943 7.97814L59.7285 7.22712L62.4001 1.43506L65.0717 7.22712L71.4058 7.97814L66.7229 12.3088L67.966 18.5651L62.4001 15.4495Z" fill="#FFA600"/>
<path d="M88.3026 15.4495L82.7367 18.5651L83.9798 12.3088L79.2968 7.97814L85.631 7.22712L88.3026 1.43506L90.9742 7.22712L97.3083 7.97814L92.6254 12.3088L93.8685 18.5651L88.3026 15.4495Z" fill="#FFA600"/>
<path d="M114.205 13.6409L117.556 15.5167L116.808 11.75L119.627 9.14254L115.814 8.69033L114.205 5.20304V13.6409ZM114.205 15.4495L108.639 18.5651L109.882 12.3088L105.199 7.97814L111.534 7.22712L114.205 1.43506L116.877 7.22712L123.211 7.97814L118.528 12.3088L119.771 18.5651L114.205 15.4495Z" fill="#FFA600"/>
<path d="M134.671 13.7102V12.0149L138.922 5.31818H140.384V7.66477H139.518L136.839 11.9055V11.9851H142.879V13.7102H134.671ZM139.558 15.5V13.1932L139.598 12.4425V5.31818H141.616V15.5H139.558ZM145.38 15.6293C145.052 15.6293 144.77 15.5133 144.535 15.2812C144.303 15.0459 144.187 14.7642 144.187 14.4361C144.187 14.1113 144.303 13.8329 144.535 13.6009C144.77 13.3688 145.052 13.2528 145.38 13.2528C145.698 13.2528 145.977 13.3688 146.215 13.6009C146.454 13.8329 146.573 14.1113 146.573 14.4361C146.573 14.6548 146.517 14.8554 146.404 15.0376C146.295 15.2166 146.151 15.3608 145.972 15.4702C145.793 15.5762 145.595 15.6293 145.38 15.6293ZM151.929 15.6392C151.226 15.6392 150.6 15.5099 150.05 15.2514C149.503 14.9929 149.068 14.6366 148.747 14.1825C148.425 13.7285 148.258 13.2081 148.245 12.6214H150.333C150.356 13.0159 150.522 13.3357 150.83 13.581C151.138 13.8262 151.505 13.9489 151.929 13.9489C152.267 13.9489 152.565 13.8743 152.824 13.7251C153.086 13.5727 153.289 13.3622 153.435 13.0938C153.584 12.822 153.659 12.5104 153.659 12.1591C153.659 11.8011 153.583 11.4863 153.43 11.2145C153.281 10.9427 153.074 10.7306 152.809 10.5781C152.544 10.4257 152.24 10.3478 151.899 10.3445C151.601 10.3445 151.311 10.4058 151.029 10.5284C150.751 10.651 150.533 10.8184 150.378 11.0305L148.464 10.6875L148.946 5.31818H155.17V7.07812H150.721L150.457 9.62855H150.517C150.696 9.37666 150.966 9.16785 151.327 9.00213C151.689 8.83641 152.093 8.75355 152.54 8.75355C153.153 8.75355 153.7 8.89773 154.181 9.18608C154.662 9.47443 155.041 9.8705 155.319 10.3743C155.598 10.8748 155.735 11.4515 155.732 12.1044C155.735 12.7905 155.576 13.4003 155.255 13.9339C154.937 14.4643 154.491 14.8819 153.917 15.1868C153.347 15.4884 152.684 15.6392 151.929 15.6392Z" fill="#151515"/>
</svg>
