<svg width="14" height="15" viewBox="0 0 14 15" fill="none" xmlns="http://www.w3.org/2000/svg">
<path d="M10.5915 4.0835H1.70833C1.43674 4.08431 1.1765 4.19256 0.984456 4.3846C0.79241 4.57665 0.684161 4.83688 0.68335 5.10848V9.25281C0.794639 9.2223 0.909618 9.20736 1.02501 9.2084H11.2748C11.3902 9.20736 11.5052 9.2223 11.6165 9.25281V5.10848C11.6157 4.83688 11.5074 4.57665 11.3154 4.3846C11.1233 4.19256 10.8631 4.08431 10.5915 4.0835ZM3.70363 5.63805C3.43745 6.04287 3.21958 6.47746 3.05447 6.93294C2.90076 7.35304 2.79196 7.78824 2.72989 8.23125C2.71837 8.31276 2.6778 8.38736 2.61566 8.44135C2.55351 8.49533 2.47397 8.52507 2.39165 8.52508C2.37563 8.52553 2.35961 8.52438 2.34382 8.52166C2.25412 8.50896 2.17313 8.46116 2.11867 8.38876C2.06421 8.31636 2.04074 8.22529 2.05341 8.13559C2.12282 7.6461 2.24305 7.16518 2.41215 6.70061C2.52581 6.38836 2.66169 6.08464 2.81873 5.7918H2.04999C1.95938 5.7918 1.87247 5.7558 1.8084 5.69173C1.74433 5.62765 1.70833 5.54075 1.70833 5.45014C1.70833 5.35952 1.74433 5.27262 1.8084 5.20855C1.87247 5.14447 1.95938 5.10848 2.04999 5.10848H3.41663C3.47805 5.10853 3.53833 5.12503 3.59121 5.15628C3.64408 5.18752 3.68762 5.23237 3.71729 5.28614C3.7463 5.34078 3.76031 5.40212 3.75791 5.46394C3.75551 5.52575 3.73678 5.58583 3.70363 5.63805ZM7.12023 5.63805C6.85405 6.04287 6.63618 6.47746 6.47107 6.93294C6.31736 7.35304 6.20856 7.78824 6.1465 8.23125C6.13497 8.31276 6.09441 8.38736 6.03226 8.44135C5.97012 8.49533 5.89057 8.52507 5.80825 8.52508C5.79223 8.52553 5.77621 8.52438 5.76042 8.52166C5.67072 8.50896 5.58973 8.46116 5.53527 8.38876C5.48081 8.31636 5.45734 8.22529 5.47001 8.13559C5.53942 7.6461 5.65965 7.16518 5.82875 6.70061C5.94241 6.38836 6.07829 6.08464 6.23533 5.7918H5.46659C5.37598 5.7918 5.28908 5.7558 5.225 5.69173C5.16093 5.62765 5.12493 5.54075 5.12493 5.45014C5.12493 5.35952 5.16093 5.27262 5.225 5.20855C5.28908 5.14447 5.37598 5.10848 5.46659 5.10848H6.83323C6.89465 5.10853 6.95493 5.12503 7.00781 5.15628C7.06069 5.18752 7.10422 5.23237 7.13389 5.28614C7.1629 5.34078 7.17692 5.40212 7.17452 5.46394C7.17211 5.52575 7.15338 5.58583 7.12023 5.63805ZM10.5368 5.63805C10.2706 6.04287 10.0528 6.47746 9.88768 6.93294C9.73396 7.35304 9.62517 7.78824 9.5631 8.23125C9.55157 8.31276 9.51101 8.38736 9.44886 8.44135C9.38672 8.49533 9.30717 8.52507 9.22485 8.52508C9.20884 8.52553 9.19281 8.52438 9.17702 8.52166C9.08732 8.50896 9.00634 8.46116 8.95187 8.38876C8.89741 8.31636 8.87394 8.22529 8.88661 8.13559C8.95603 7.6461 9.07626 7.16518 9.24535 6.70061C9.35902 6.38836 9.49489 6.08464 9.65193 5.7918H8.88319C8.79258 5.7918 8.70568 5.7558 8.6416 5.69173C8.57753 5.62765 8.54153 5.54075 8.54153 5.45014C8.54153 5.35952 8.57753 5.27262 8.6416 5.20855C8.70568 5.14447 8.79258 5.10848 8.88319 5.10848H10.2498C10.3113 5.10853 10.3715 5.12503 10.4244 5.15628C10.4773 5.18752 10.5208 5.23237 10.5505 5.28614C10.5795 5.34078 10.5935 5.40212 10.5911 5.46394C10.5887 5.52575 10.57 5.58583 10.5368 5.63805Z" fill="#D70000"/>
<path d="M8.86271 2.08473L8.26822 3.74178H4.01797L3.43714 2.19748C3.41379 2.13189 3.41041 2.06085 3.42744 1.99334C3.44447 1.92583 3.48114 1.86489 3.53281 1.81823C3.5854 1.77303 3.6505 1.74489 3.71946 1.73757C3.78842 1.73024 3.85797 1.74408 3.91888 1.77723L5.00878 2.36147L5.85268 0.841086C5.88319 0.786772 5.92797 0.741833 5.98217 0.711129C6.03638 0.680425 6.09794 0.665125 6.16021 0.666884C6.22248 0.668643 6.28309 0.687394 6.33547 0.721109C6.38786 0.754824 6.43003 0.802219 6.45742 0.858169L7.17832 2.34781L8.37413 1.67132C8.43485 1.63731 8.50451 1.62265 8.57379 1.62931C8.64307 1.63597 8.70866 1.66363 8.76179 1.70859C8.81492 1.75354 8.85306 1.81365 8.87109 1.88087C8.88912 1.94809 8.8862 2.01922 8.86271 2.08473Z" fill="#D70000"/>
<path d="M13.3247 10.9167H11.9581C11.7694 10.9167 11.6164 11.0697 11.6164 11.2584V12.625C11.6164 12.8137 11.7694 12.9667 11.9581 12.9667H13.3247C13.5134 12.9667 13.6664 12.8137 13.6664 12.625V11.2584C13.6664 11.0697 13.5134 10.9167 13.3247 10.9167Z" fill="#D70000"/>
<path d="M12.6414 1.69214C12.3696 1.69214 12.1089 1.80013 11.9166 1.99235C11.7244 2.18457 11.6164 2.44528 11.6164 2.71712V3.40044C11.6164 3.67228 11.7244 3.93299 11.9166 4.12521C12.1089 4.31743 12.3696 4.42542 12.6414 4.42542C12.9132 4.42542 13.174 4.31743 13.3662 4.12521C13.5584 3.93299 13.6664 3.67228 13.6664 3.40044V2.71712C13.6664 2.44528 13.5584 2.18457 13.3662 1.99235C13.174 1.80013 12.9132 1.69214 12.6414 1.69214Z" fill="#D70000"/>
<path d="M12.6414 11.5996C12.5508 11.5996 12.4639 11.5636 12.3998 11.4996C12.3358 11.4355 12.2998 11.3486 12.2998 11.258V4.08312C12.2998 3.9925 12.3358 3.9056 12.3998 3.84153C12.4639 3.77745 12.5508 3.74146 12.6414 3.74146C12.732 3.74146 12.819 3.77745 12.883 3.84153C12.9471 3.9056 12.9831 3.9925 12.9831 4.08312V11.258C12.9831 11.3486 12.9471 11.4355 12.883 11.4996C12.819 11.5636 12.732 11.5996 12.6414 11.5996Z" fill="#D70000"/>
<path d="M9.56653 11.5999H2.73332C2.64271 11.5999 2.55581 11.6358 2.49173 11.6999C2.42766 11.764 2.39166 11.8509 2.39166 11.9415C2.39166 12.0321 2.42766 12.119 2.49173 12.1831C2.55581 12.2472 2.64271 12.2832 2.73332 12.2832H9.56653C9.65714 12.2832 9.74404 12.2472 9.80812 12.1831C9.87219 12.119 9.90819 12.0321 9.90819 11.9415C9.90819 11.8509 9.87219 11.764 9.80812 11.6999C9.74404 11.6358 9.65714 11.5999 9.56653 11.5999Z" fill="#D70000"/>
<path d="M11.2748 9.55029H1.02498C0.753139 9.55029 0.492431 9.65828 0.30021 9.8505C0.107989 10.0427 0 10.3034 0 10.5753V13.3086C0 13.5804 0.107989 13.8411 0.30021 14.0333C0.492431 14.2255 0.753139 14.3335 1.02498 14.3335H11.2748C11.5466 14.3335 11.8073 14.2255 11.9996 14.0333C12.1918 13.8411 12.2998 13.5804 12.2998 13.3086V10.5753C12.2998 10.3034 12.1918 10.0427 11.9996 9.8505C11.8073 9.65828 11.5466 9.55029 11.2748 9.55029ZM9.56649 12.9669H2.73328C2.46144 12.9669 2.20073 12.8589 2.00851 12.6667C1.81629 12.4745 1.7083 12.2138 1.7083 11.9419C1.7083 11.6701 1.81629 11.4094 2.00851 11.2171C2.20073 11.0249 2.46144 10.9169 2.73328 10.9169H9.56649C9.83833 10.9169 10.099 11.0249 10.2913 11.2171C10.4835 11.4094 10.5915 11.6701 10.5915 11.9419C10.5915 12.2138 10.4835 12.4745 10.2913 12.6667C10.099 12.8589 9.83833 12.9669 9.56649 12.9669Z" fill="#D70000"/>
</svg>
