<svg width="11" height="15" viewBox="0 0 11 15" fill="none" xmlns="http://www.w3.org/2000/svg">
<path d="M8.82214 12.6092H8.23775L8.51276 11.8787L8.82214 12.6092ZM3.02977 1.32523C3.37353 2.14166 3.71729 2.9581 4.06965 3.77453C4.16418 4.02376 3.80323 4.17845 3.7001 3.92922L3.38212 3.19014H2.36803C2.29068 3.40499 2.19615 3.68859 2.10161 3.90344C1.96411 4.21282 1.63754 4.00657 1.71488 3.78312C2.03286 2.9581 2.34225 2.14166 2.65163 1.31664C2.72038 1.14476 2.96961 1.14476 3.02977 1.32523ZM9.92218 0.165039H1.43128C1.01017 0.165039 0.666412 0.5088 0.666412 0.938501V14.0616C0.666412 14.4827 1.01017 14.835 1.43128 14.835H9.92218C10.3519 14.835 10.6956 14.4827 10.6956 14.0616V0.938501C10.6956 0.5088 10.3519 0.165039 9.92218 0.165039ZM6.433 4.65112C6.60488 4.65112 6.69942 4.84878 6.5877 4.97769C6.433 5.20114 6.32987 5.8285 6.2955 6.06913C6.91427 6.06913 7.39553 6.24961 7.7307 6.80822C8.46979 8.06295 6.8627 9.50674 5.96033 10.1857C5.61657 10.4521 5.62516 10.3661 5.32437 10.1083C4.64545 9.53253 3.34775 8.33796 3.42509 7.43558C3.50244 6.59337 4.24153 6.00038 5.06655 6.06913L5.05796 6.04335C5.04937 5.9746 4.90327 5.22692 4.80873 5.02066C4.76576 4.91753 4.61107 4.70268 4.88608 4.65112C5.15249 4.60815 6.09784 4.65112 6.433 4.65112ZM7.45569 13.5373C7.74789 12.7811 8.03149 12.0248 8.31509 11.2685C8.38385 11.0966 8.63307 11.0966 8.69323 11.2771C9.01121 12.0334 9.32919 12.7811 9.64717 13.5287C9.7503 13.7694 9.38075 13.9241 9.27763 13.6834L8.99402 13.0131H8.08306C8.00571 13.2194 7.91977 13.4858 7.83383 13.6834C7.7393 13.9241 7.36116 13.7866 7.45569 13.5373ZM3.21024 2.78622H2.52272L2.84929 1.92681L3.21024 2.78622Z" fill="#D70000"/>
</svg>
