<svg width="21" height="20" viewBox="0 0 21 20" fill="none" xmlns="http://www.w3.org/2000/svg">
<path d="M11.979 9.19941C12.9442 7.72212 13.8333 6.36106 13.8333 4.99999C13.8333 3.15904 12.3409 1.66666 10.5 1.66666C8.65904 1.66666 7.16666 3.15904 7.16666 4.99999C7.16666 6.36106 8.05586 7.72212 9.02099 9.19941L9.02166 9.20041C9.08632 9.29941 9.15132 9.39891 9.21641 9.49899C8.97532 9.31582 8.75264 9.14157 8.54343 8.97782C7.39678 8.08051 6.65494 7.49999 5.49999 7.49999C3.65904 7.49999 2.16666 8.99241 2.16666 10.8333C2.16666 12.6742 3.65904 14.1667 5.49999 14.1667C6.86106 14.1667 8.22212 13.2775 9.69941 12.3123L9.72507 12.2956C9.64782 14.1967 8.92657 15.3651 8.1307 16.6544C8.02912 16.819 7.92631 16.9855 7.82349 17.1557C7.50324 17.686 7.89553 18.3333 8.51501 18.3333H12.485C13.1044 18.3333 13.4967 17.686 13.1765 17.1557C13.0737 16.9855 12.9709 16.819 12.8693 16.6544C12.0734 15.3651 11.3522 14.1967 11.2749 12.2956C11.2835 12.3012 11.2921 12.3067 11.3006 12.3123C12.7778 13.2775 14.1389 14.1667 15.5 14.1667C17.3409 14.1667 18.8333 12.6742 18.8333 10.8333C18.8333 8.99241 17.3409 7.49999 15.5 7.49999C14.3451 7.49999 13.6032 8.08051 12.4566 8.97782C12.2473 9.14157 12.0247 9.31582 11.7836 9.49899C11.8489 9.39857 11.9142 9.29874 11.979 9.19941Z" fill="white"/>
</svg>
