<svg width="30" height="30" viewBox="0 0 30 30" fill="none" xmlns="http://www.w3.org/2000/svg">
<circle cx="15" cy="15" r="15" fill="#D70000"/>
<path d="M11.2951 18.5658C9.64747 17.4277 8.57153 15.5508 8.57153 13.4283C8.57153 9.95679 11.4497 7.14258 15.0001 7.14258C18.5505 7.14258 21.4287 9.95679 21.4287 13.4283C21.4287 15.5508 20.3528 17.4277 18.7051 18.5658L20.3789 22.3066C20.4678 22.5053 20.3751 22.737 20.1718 22.8239C20.121 22.8456 20.0662 22.8569 20.0108 22.8569H9.98944C9.76754 22.8569 9.58766 22.6809 9.58766 22.464C9.58766 22.4098 9.59912 22.3562 9.62134 22.3066L11.2951 18.5658ZM11.8811 14.1907C12.2295 15.558 13.4938 16.5711 15.0001 16.5711C16.5064 16.5711 17.7707 15.558 18.1192 14.1907L16.5596 13.8095C16.3854 14.4932 15.7532 14.9997 15.0001 14.9997C14.247 14.9997 13.6148 14.4932 13.4406 13.8095L11.8811 14.1907Z" fill="white"/>
</svg>
