<svg width="21" height="20" viewBox="0 0 21 20" fill="none" xmlns="http://www.w3.org/2000/svg">
<path d="M10.5 1.66666C15.1023 1.66666 18.8333 5.39761 18.8333 9.99999C18.8333 14.6023 15.1023 18.3333 10.5 18.3333C5.89763 18.3333 2.16667 14.6023 2.16667 9.99999C2.16667 5.39761 5.89763 1.66666 10.5 1.66666ZM11.8913 13.3332H9.10792L7.95878 14.9141L8.42034 16.3359C9.07475 16.5506 9.77384 16.6667 10.5 16.6667C11.2262 16.6667 11.9253 16.5506 12.5797 16.3359L13.0404 14.9141L11.8913 13.3332ZM4.91129 9.05991L3.83519 9.84124L3.83334 9.99999C3.83334 11.4414 4.29079 12.776 5.06842 13.8664L6.66045 13.8666L7.76211 12.3499L6.90545 9.70824L4.91129 9.05991ZM16.0879 9.05991L14.0938 9.70824L13.2371 12.3499L14.3388 13.8666L15.9316 13.8664C16.7093 12.776 17.1667 11.4414 17.1667 9.99999L17.1642 9.84082L16.0879 9.05991ZM12.4095 3.61081L11.3329 4.3941V6.4916L13.5779 8.12243L15.4438 7.5166L15.9056 6.09732C15.0558 4.92236 13.8323 4.03544 12.4095 3.61081ZM8.59048 3.61081C7.16732 4.03553 5.94364 4.92278 5.09385 6.09814L5.55545 7.5166L7.42129 8.12243L9.66625 6.4916V4.3941L8.59048 3.61081Z" fill="white"/>
</svg>
