<svg width="78" height="38" viewBox="0 0 78 38" fill="none" xmlns="http://www.w3.org/2000/svg">
<path d="M5.01079 10.9228C4.99127 5.84062 8.29661 3.02212 14.3649 3.001C18.7316 2.98564 19.5121 5.79646 19.5121 6.81788C19.5121 8.77432 16.6985 10.8498 16.6985 10.8498C16.6985 10.8498 16.8546 12.069 19.2702 12.0594C21.6858 12.0498 24.0389 10.4812 24.0253 6.55485C24.0136 2.04486 19.2116 -0.017172 14.4644 0.000107672C10.4937 0.0135474 -0.0369752 0.562655 9.76348e-05 10.8498C0.0352193 19.9869 17.5609 20.7933 17.5746 26.6434C17.598 32.9965 10.3551 34.7072 7.90442 34.7072C5.45371 34.7072 4.45665 33.0004 4.45274 32.0634C4.43518 26.9179 9.63904 25.4856 9.63904 25.4856C9.63904 25.1016 9.33465 23.391 7.31906 23.3986C2.12691 23.4082 0.0586337 27.8011 0.0742434 32.0903C0.0879018 35.7382 2.70837 38.0153 6.66541 37.9999C14.2322 37.973 22.7648 34.3405 22.7336 26.2728C22.7062 18.7274 5.03225 16.7575 5.01079 10.9228Z" fill="black"/>
<path d="M77.1448 31.1379C77.0843 30.9939 76.9146 31.0285 76.6902 31.2109C75.8317 31.9078 73.8687 33.8815 69.2756 33.8988C60.9011 33.9295 59.4474 20.3478 59.4474 20.3478C59.4474 20.3478 65.8298 15.6592 66.8269 13.7681C67.8239 11.8769 64.6513 11.4641 64.6513 11.4641C64.6513 11.4641 60.1869 16.8093 57.0221 18.376C57.3655 16.0509 59.7069 10.7518 59.8415 7.70483C59.9762 4.65786 56.1128 5.40088 55.4962 5.69271C55.4962 7.02325 52.0836 19.1017 50.8406 25.7409C50.1089 26.8929 49.0631 28.21 48.1265 28.2119C47.5841 28.2119 47.3851 27.2231 47.3792 25.8062C47.3792 23.8402 48.4797 20.6895 48.4719 18.7753C48.4719 17.4505 47.8534 17.3718 47.3207 17.3737C47.2056 17.3737 46.5656 17.391 46.4485 17.391C45.0826 17.391 45.5314 16.239 44.3022 16.2506C40.5402 16.264 35.7481 20.3055 35.5393 26.4052C34.2691 27.2327 32.4915 28.2753 31.5842 28.2791C30.632 28.2791 30.3959 27.4132 30.394 26.6644C30.394 25.3493 32.5559 17.535 32.5559 17.535C32.5559 17.535 35.3091 16.84 36.511 16.6115C37.4203 16.4368 37.6817 16.3715 38.0349 15.9395C38.3881 15.5075 39.0788 14.6148 39.6368 13.8122C40.1949 13.0097 39.6466 12.3895 38.6144 12.3934C37.2603 12.3934 33.6369 13.2382 33.6369 13.2382C33.6369 13.2382 35.3774 5.85399 35.3754 5.70423C35.3735 5.55448 35.1803 5.47576 34.8857 5.47768C34.2262 5.47768 33.0496 5.82711 32.2964 6.09207C31.1433 6.49718 30.2047 7.88723 30.0155 8.53425C29.8262 9.18128 28.5228 14.2481 28.5228 14.2481C28.5228 14.2481 21.5433 16.6192 20.5892 16.9744C20.5607 16.984 20.536 17.0021 20.5185 17.0262C20.501 17.0503 20.4916 17.0792 20.4916 17.1088C20.4916 17.1702 21.2897 20.1807 22.9267 20.1692C24.0975 20.1692 27.5374 18.783 27.5374 18.783C27.5374 18.783 25.7696 25.6948 25.7814 27.9988C25.7814 29.4772 26.4896 31.209 29.4242 31.1994C32.1559 31.1994 34.5462 29.8112 35.8847 28.8455C36.6164 30.6675 38.3451 31.1667 39.5256 31.1629C42.1715 31.1629 44.2085 29.0855 44.47 28.8071C44.8134 29.6058 45.6231 31.1398 47.4729 31.1341C48.5187 31.1341 49.6016 29.9821 50.3997 28.8647C50.3846 29.0969 50.3878 29.3299 50.4094 29.5616C50.7294 32.4262 55.0513 30.7424 55.2874 30.3431C55.4338 28.2714 55.3421 24.036 56.183 21.421C57.2991 30.3411 61.5332 36.341 69.1449 36.3141C73.4005 36.2988 75.5839 35.095 76.4873 34.1023C76.85 33.7075 77.1015 33.2262 77.2168 32.7062C77.3322 32.1862 77.3073 31.6456 77.1448 31.1379ZM40.6241 28.1966C36.9695 28.21 41.7422 18.8886 44.8602 18.8771C44.8641 20.079 44.7958 28.1831 40.6241 28.1966Z" fill="black"/>
<path d="M70.294 31.0534C73.5935 31.0419 76.1476 28.9049 76.6159 28.2099C77.2208 27.3056 75.9135 25.9405 75.4979 25.9636C74.4559 26.9447 73.3672 28.1312 70.9223 28.1389C68.0443 28.1504 68.696 25.0343 68.696 25.0343C68.696 25.0343 74.2354 25.7389 76.4618 21.8203C77.1739 20.5666 77.2032 18.8329 76.9164 18.086C76.6296 17.3391 75.0179 15.9568 72.454 16.166C69.3047 16.4271 65.336 19.6584 64.4638 23.5387C63.7633 26.6605 65.0882 31.0726 70.294 31.0534ZM73.8062 17.9785C74.3252 17.9612 74.2784 18.8021 74.1398 19.6815C73.9447 20.8738 72.2803 23.9054 69.1038 23.7863C69.3243 22.0219 71.6872 18.0476 73.812 17.9785H73.8062Z" fill="black"/>
</svg>
