<svg width="112" height="112" viewBox="0 0 112 112" fill="none" xmlns="http://www.w3.org/2000/svg">
<rect width="112" height="112" rx="14" fill="#D70000"/>
<path d="M45.6261 66.2119C41.0126 62.9527 38 57.5781 38 51.5C38 41.5589 46.0589 33.5 56 33.5C65.9412 33.5 74 41.5589 74 51.5C74 57.5781 70.9875 62.9527 66.3738 66.2119L71.0606 76.9241C71.3097 77.4934 71.05 78.1566 70.4808 78.4057C70.3386 78.4678 70.1851 78.5 70.0299 78.5H41.9701C41.3488 78.5 40.8451 77.9962 40.8451 77.375C40.8451 77.2197 40.8773 77.0663 40.9395 76.9241L45.6261 66.2119ZM47.2666 53.6834C48.2424 57.5989 51.7824 60.5 56 60.5C60.2176 60.5 63.7576 57.5989 64.7334 53.6834L60.3666 52.5917C59.8788 54.5494 58.1087 56 56 56C53.8913 56 52.1212 54.5494 51.6334 52.5917L47.2666 53.6834Z" fill="white"/>
</svg>
